<svg xmlns="http://www.w3.org/2000/svg" xmlns:xlink="http://www.w3.org/1999/xlink" width="239" zoomAndPan="magnify" viewBox="0 0 179.25 47.25" height="63" preserveAspectRatio="xMidYMid meet" version="1.0"><defs><g/><clipPath id="b5c2898247"><path d="M 1.03125 7.035156 L 33.515625 7.035156 L 33.515625 37.304688 L 1.03125 37.304688 Z M 1.03125 7.035156 " clip-rule="nonzero"/></clipPath></defs><g clip-path="url(#b5c2898247)"><path fill="#f2f2f2" d="M 28.960938 28.832031 C 28.554688 28.832031 28.28125 29.105469 28.28125 29.515625 L 28.28125 33.601562 C 28.28125 34.691406 27.328125 35.644531 26.238281 35.644531 L 4.441406 35.644531 C 3.351562 35.644531 2.398438 34.691406 2.398438 33.601562 L 2.398438 13.847656 L 28.28125 13.847656 L 28.28125 18.617188 C 28.28125 19.023438 28.554688 19.296875 28.960938 19.296875 C 29.371094 19.296875 29.644531 19.023438 29.644531 18.617188 L 29.644531 10.441406 C 29.644531 8.535156 28.144531 7.035156 26.238281 7.035156 L 4.441406 7.035156 C 2.535156 7.035156 1.035156 8.535156 1.035156 10.441406 L 1.035156 33.601562 C 1.035156 35.507812 2.535156 37.007812 4.441406 37.007812 L 26.238281 37.007812 C 28.144531 37.007812 29.644531 35.507812 29.644531 33.601562 L 29.644531 29.515625 C 29.644531 29.105469 29.371094 28.832031 28.960938 28.832031 Z M 9.890625 9.761719 C 10.300781 9.761719 10.570312 10.035156 10.570312 10.441406 C 10.570312 10.851562 10.300781 11.125 9.890625 11.125 C 9.480469 11.125 9.210938 10.851562 9.210938 10.441406 C 9.210938 10.035156 9.480469 9.761719 9.890625 9.761719 Z M 7.167969 9.761719 C 7.574219 9.761719 7.847656 10.035156 7.847656 10.441406 C 7.847656 10.851562 7.574219 11.125 7.167969 11.125 C 6.757812 11.125 6.484375 10.851562 6.484375 10.441406 C 6.484375 10.035156 6.757812 9.761719 7.167969 9.761719 Z M 4.441406 9.761719 C 4.851562 9.761719 5.121094 10.035156 5.121094 10.441406 C 5.121094 10.851562 4.851562 11.125 4.441406 11.125 C 4.03125 11.125 3.761719 10.851562 3.761719 10.441406 C 3.761719 10.035156 4.03125 9.761719 4.441406 9.761719 Z M 31.6875 20.660156 L 30.324219 20.660156 C 29.914062 20.660156 29.644531 20.933594 29.644531 21.339844 L 29.644531 26.789062 C 29.644531 27.199219 29.914062 27.472656 30.324219 27.472656 C 30.734375 27.472656 31.003906 27.199219 31.003906 26.789062 L 31.003906 24.746094 L 31.6875 24.746094 C 32.777344 24.746094 33.730469 23.792969 33.730469 22.703125 C 33.730469 21.613281 32.777344 20.660156 31.6875 20.660156 Z M 31.6875 23.382812 L 31.003906 23.382812 L 31.003906 22.023438 L 31.6875 22.023438 C 32.09375 22.023438 32.367188 22.292969 32.367188 22.703125 C 32.367188 23.113281 32.09375 23.382812 31.6875 23.382812 Z M 24.875 20.660156 C 24.464844 20.660156 24.195312 20.933594 24.195312 21.339844 L 24.195312 26.789062 C 24.195312 27.199219 24.464844 27.472656 24.875 27.472656 C 25.285156 27.472656 25.554688 27.199219 25.554688 26.789062 L 25.554688 24.746094 L 26.238281 24.746094 C 27.328125 24.746094 28.28125 23.792969 28.28125 22.703125 C 28.28125 21.613281 27.328125 20.660156 26.238281 20.660156 Z M 26.917969 22.703125 C 26.917969 23.113281 26.644531 23.382812 26.238281 23.382812 L 25.554688 23.382812 L 25.554688 22.023438 L 26.238281 22.023438 C 26.644531 22.023438 26.917969 22.292969 26.917969 22.703125 Z M 19.425781 21.066406 L 17.382812 26.515625 C 17.246094 26.925781 17.382812 27.199219 17.792969 27.335938 C 18.199219 27.472656 18.472656 27.335938 18.609375 26.925781 L 19.019531 25.972656 L 21.199219 25.972656 L 21.605469 26.925781 C 21.742188 27.199219 22.015625 27.335938 22.289062 27.335938 C 22.421875 27.335938 22.421875 27.335938 22.558594 27.335938 C 22.96875 27.199219 23.105469 26.789062 22.96875 26.515625 L 20.925781 21.066406 C 20.515625 20.523438 19.699219 20.523438 19.425781 21.066406 Z M 19.5625 24.746094 L 20.109375 23.246094 L 20.652344 24.746094 Z M 19.5625 24.746094 " fill-opacity="1" fill-rule="nonzero"/></g><g fill="#f2f2f2" fill-opacity="0.4"><g transform="translate(51.273551, 30.290215)"><g><path d="M 22.4375 -14.09375 L 16.5 0 L 11.6875 0 L 11.265625 -8.65625 L 7.75 0 L 2.9375 0 L 2.015625 -14.09375 L 6.25 -14.09375 L 6.21875 -4.453125 L 10.109375 -14.09375 L 14.40625 -14.09375 L 14.875 -4.5 L 18.203125 -14.09375 Z M 22.4375 -14.09375 "/></g></g></g><g fill="#f2f2f2" fill-opacity="0.4"><g transform="translate(77.183121, 30.290215)"><g><path d="M 9.4375 -2.296875 L 4.4375 -2.296875 L 3.28125 0 L -0.84375 0 L 6.78125 -14.09375 L 11.296875 -14.09375 L 13.921875 0 L 9.796875 0 Z M 8.96875 -5.28125 L 8.28125 -9.859375 L 5.953125 -5.28125 Z M 8.96875 -5.28125 "/></g></g></g><g fill="#f2f2f2" fill-opacity="0.4"><g transform="translate(96.680843, 30.290215)"><g><path d="M 7.953125 -14.8125 L 5.828125 -5.28125 L 2.484375 -5.28125 L 3.703125 -14.8125 Z M 3.203125 0.15625 C 2.585938 0.15625 2.101562 0.00390625 1.75 -0.296875 C 1.394531 -0.609375 1.21875 -1.007812 1.21875 -1.5 C 1.21875 -1.925781 1.332031 -2.320312 1.5625 -2.6875 C 1.800781 -3.050781 2.125 -3.34375 2.53125 -3.5625 C 2.945312 -3.78125 3.410156 -3.890625 3.921875 -3.890625 C 4.515625 -3.890625 4.988281 -3.734375 5.34375 -3.421875 C 5.695312 -3.109375 5.875 -2.707031 5.875 -2.21875 C 5.875 -1.550781 5.617188 -0.988281 5.109375 -0.53125 C 4.597656 -0.0703125 3.960938 0.15625 3.203125 0.15625 Z M 3.203125 0.15625 "/></g></g></g><g fill="#f2f2f2" fill-opacity="0.4"><g transform="translate(109.547004, 30.290215)"><g/></g></g><g fill="#f2f2f2" fill-opacity="0.4"><g transform="translate(117.978807, 30.290215)"><g><path d="M 11.9375 -14.09375 L 10.296875 -4.75 C 10.015625 -3.164062 9.367188 -1.953125 8.359375 -1.109375 C 7.359375 -0.273438 6.101562 0.140625 4.59375 0.140625 C 3.207031 0.140625 2.113281 -0.195312 1.3125 -0.875 C 0.519531 -1.5625 0.125 -2.550781 0.125 -3.84375 C 0.125 -4.207031 0.160156 -4.613281 0.234375 -5.0625 L 4.140625 -5.0625 C 4.097656 -4.84375 4.078125 -4.640625 4.078125 -4.453125 C 4.078125 -3.742188 4.40625 -3.390625 5.0625 -3.390625 C 5.75 -3.390625 6.1875 -3.84375 6.375 -4.75 L 8.015625 -14.09375 Z M 11.9375 -14.09375 "/></g></g></g><g fill="#f2f2f2" fill-opacity="0.4"><g transform="translate(134.060881, 30.290215)"><g><path d="M 6.4375 -14.09375 L 5.015625 -5.921875 C 4.972656 -5.679688 4.953125 -5.453125 4.953125 -5.234375 C 4.953125 -4.703125 5.09375 -4.289062 5.375 -4 C 5.664062 -3.707031 6.113281 -3.5625 6.71875 -3.5625 C 7.4375 -3.5625 8.015625 -3.765625 8.453125 -4.171875 C 8.890625 -4.585938 9.175781 -5.171875 9.3125 -5.921875 L 10.75 -14.09375 L 14.671875 -14.09375 L 13.234375 -5.921875 C 13.003906 -4.585938 12.539062 -3.46875 11.84375 -2.5625 C 11.15625 -1.65625 10.3125 -0.976562 9.3125 -0.53125 C 8.3125 -0.0820312 7.21875 0.140625 6.03125 0.140625 C 4.5 0.140625 3.269531 -0.257812 2.34375 -1.0625 C 1.414062 -1.863281 0.953125 -3.007812 0.953125 -4.5 C 0.953125 -4.976562 1 -5.453125 1.09375 -5.921875 L 2.53125 -14.09375 Z M 6.4375 -14.09375 "/></g></g></g><g fill="#f2f2f2" fill-opacity="0.4"><g transform="translate(152.699702, 30.290215)"><g><path d="M 7.953125 -14.8125 L 5.828125 -5.28125 L 2.484375 -5.28125 L 3.703125 -14.8125 Z M 3.203125 0.15625 C 2.585938 0.15625 2.101562 0.00390625 1.75 -0.296875 C 1.394531 -0.609375 1.21875 -1.007812 1.21875 -1.5 C 1.21875 -1.925781 1.332031 -2.320312 1.5625 -2.6875 C 1.800781 -3.050781 2.125 -3.34375 2.53125 -3.5625 C 2.945312 -3.78125 3.410156 -3.890625 3.921875 -3.890625 C 4.515625 -3.890625 4.988281 -3.734375 5.34375 -3.421875 C 5.695312 -3.109375 5.875 -2.707031 5.875 -2.21875 C 5.875 -1.550781 5.617188 -0.988281 5.109375 -0.53125 C 4.597656 -0.0703125 3.960938 0.15625 3.203125 0.15625 Z M 3.203125 0.15625 "/></g></g></g><g fill="#f2f2f2" fill-opacity="1"><g transform="translate(50.072309, 29.088974)"><g><path d="M 22.4375 -14.09375 L 16.5 0 L 11.6875 0 L 11.265625 -8.65625 L 7.75 0 L 2.9375 0 L 2.015625 -14.09375 L 6.25 -14.09375 L 6.21875 -4.453125 L 10.109375 -14.09375 L 14.40625 -14.09375 L 14.875 -4.5 L 18.203125 -14.09375 Z M 22.4375 -14.09375 "/></g></g></g><g fill="#f2f2f2" fill-opacity="1"><g transform="translate(75.981879, 29.088974)"><g><path d="M 9.4375 -2.296875 L 4.4375 -2.296875 L 3.28125 0 L -0.84375 0 L 6.78125 -14.09375 L 11.296875 -14.09375 L 13.921875 0 L 9.796875 0 Z M 8.96875 -5.28125 L 8.28125 -9.859375 L 5.953125 -5.28125 Z M 8.96875 -5.28125 "/></g></g></g><g fill="#f2f2f2" fill-opacity="1"><g transform="translate(95.479602, 29.088974)"><g><path d="M 7.953125 -14.8125 L 5.828125 -5.28125 L 2.484375 -5.28125 L 3.703125 -14.8125 Z M 3.203125 0.15625 C 2.585938 0.15625 2.101562 0.00390625 1.75 -0.296875 C 1.394531 -0.609375 1.21875 -1.007812 1.21875 -1.5 C 1.21875 -1.925781 1.332031 -2.320312 1.5625 -2.6875 C 1.800781 -3.050781 2.125 -3.34375 2.53125 -3.5625 C 2.945312 -3.78125 3.410156 -3.890625 3.921875 -3.890625 C 4.515625 -3.890625 4.988281 -3.734375 5.34375 -3.421875 C 5.695312 -3.109375 5.875 -2.707031 5.875 -2.21875 C 5.875 -1.550781 5.617188 -0.988281 5.109375 -0.53125 C 4.597656 -0.0703125 3.960938 0.15625 3.203125 0.15625 Z M 3.203125 0.15625 "/></g></g></g><g fill="#f2f2f2" fill-opacity="1"><g transform="translate(108.345762, 29.088974)"><g/></g></g><g fill="#f2f2f2" fill-opacity="1"><g transform="translate(116.777565, 29.088974)"><g><path d="M 11.9375 -14.09375 L 10.296875 -4.75 C 10.015625 -3.164062 9.367188 -1.953125 8.359375 -1.109375 C 7.359375 -0.273438 6.101562 0.140625 4.59375 0.140625 C 3.207031 0.140625 2.113281 -0.195312 1.3125 -0.875 C 0.519531 -1.5625 0.125 -2.550781 0.125 -3.84375 C 0.125 -4.207031 0.160156 -4.613281 0.234375 -5.0625 L 4.140625 -5.0625 C 4.097656 -4.84375 4.078125 -4.640625 4.078125 -4.453125 C 4.078125 -3.742188 4.40625 -3.390625 5.0625 -3.390625 C 5.75 -3.390625 6.1875 -3.84375 6.375 -4.75 L 8.015625 -14.09375 Z M 11.9375 -14.09375 "/></g></g></g><g fill="#f2f2f2" fill-opacity="1"><g transform="translate(132.859639, 29.088974)"><g><path d="M 6.4375 -14.09375 L 5.015625 -5.921875 C 4.972656 -5.679688 4.953125 -5.453125 4.953125 -5.234375 C 4.953125 -4.703125 5.09375 -4.289062 5.375 -4 C 5.664062 -3.707031 6.113281 -3.5625 6.71875 -3.5625 C 7.4375 -3.5625 8.015625 -3.765625 8.453125 -4.171875 C 8.890625 -4.585938 9.175781 -5.171875 9.3125 -5.921875 L 10.75 -14.09375 L 14.671875 -14.09375 L 13.234375 -5.921875 C 13.003906 -4.585938 12.539062 -3.46875 11.84375 -2.5625 C 11.15625 -1.65625 10.3125 -0.976562 9.3125 -0.53125 C 8.3125 -0.0820312 7.21875 0.140625 6.03125 0.140625 C 4.5 0.140625 3.269531 -0.257812 2.34375 -1.0625 C 1.414062 -1.863281 0.953125 -3.007812 0.953125 -4.5 C 0.953125 -4.976562 1 -5.453125 1.09375 -5.921875 L 2.53125 -14.09375 Z M 6.4375 -14.09375 "/></g></g></g><g fill="#f2f2f2" fill-opacity="1"><g transform="translate(151.498461, 29.088974)"><g><path d="M 7.953125 -14.8125 L 5.828125 -5.28125 L 2.484375 -5.28125 L 3.703125 -14.8125 Z M 3.203125 0.15625 C 2.585938 0.15625 2.101562 0.00390625 1.75 -0.296875 C 1.394531 -0.609375 1.21875 -1.007812 1.21875 -1.5 C 1.21875 -1.925781 1.332031 -2.320312 1.5625 -2.6875 C 1.800781 -3.050781 2.125 -3.34375 2.53125 -3.5625 C 2.945312 -3.78125 3.410156 -3.890625 3.921875 -3.890625 C 4.515625 -3.890625 4.988281 -3.734375 5.34375 -3.421875 C 5.695312 -3.109375 5.875 -2.707031 5.875 -2.21875 C 5.875 -1.550781 5.617188 -0.988281 5.109375 -0.53125 C 4.597656 -0.0703125 3.960938 0.15625 3.203125 0.15625 Z M 3.203125 0.15625 "/></g></g></g></svg>