<svg xmlns="http://www.w3.org/2000/svg" xmlns:xlink="http://www.w3.org/1999/xlink" width="127" zoomAndPan="magnify" viewBox="0 0 95.25 94.499998" height="126" preserveAspectRatio="xMidYMid meet" version="1.0"><defs><g/></defs><g fill="#f2f2f2" fill-opacity="0.4"><g transform="translate(16.745027, 43.014671)"><g><path d="M 31.8125 -19.96875 L 23.40625 0 L 16.578125 0 L 15.984375 -12.265625 L 10.984375 0 L 4.171875 0 L 2.859375 -19.96875 L 8.859375 -19.96875 L 8.8125 -6.3125 L 14.328125 -19.96875 L 20.421875 -19.96875 L 21.078125 -6.375 L 25.8125 -19.96875 Z M 31.8125 -19.96875 "/></g></g></g><g fill="#f2f2f2" fill-opacity="0.4"><g transform="translate(46.7557, 43.014671)"><g><path d="M 13.375 -3.25 L 6.28125 -3.25 L 4.640625 0 L -1.1875 0 L 9.609375 -19.96875 L 16 -19.96875 L 19.75 0 L 13.875 0 Z M 12.71875 -7.484375 L 11.734375 -13.96875 L 8.4375 -7.484375 Z M 12.71875 -7.484375 "/></g></g></g><g fill="#f2f2f2" fill-opacity="0.4"><g transform="translate(67.678151, 43.014671)"><g><path d="M 11.28125 -20.984375 L 8.265625 -7.484375 L 3.515625 -7.484375 L 5.234375 -20.984375 Z M 4.53125 0.234375 C 3.664062 0.234375 2.984375 0.015625 2.484375 -0.421875 C 1.984375 -0.859375 1.734375 -1.425781 1.734375 -2.125 C 1.734375 -2.726562 1.894531 -3.289062 2.21875 -3.8125 C 2.550781 -4.332031 3.007812 -4.75 3.59375 -5.0625 C 4.175781 -5.375 4.828125 -5.53125 5.546875 -5.53125 C 6.398438 -5.53125 7.078125 -5.304688 7.578125 -4.859375 C 8.078125 -4.410156 8.328125 -3.835938 8.328125 -3.140625 C 8.328125 -2.203125 7.960938 -1.40625 7.234375 -0.75 C 6.503906 -0.09375 5.601562 0.234375 4.53125 0.234375 Z M 4.53125 0.234375 "/></g></g></g><g fill="#f2f2f2" fill-opacity="1"><g transform="translate(15.042375, 41.312019)"><g><path d="M 31.8125 -19.96875 L 23.40625 0 L 16.578125 0 L 15.984375 -12.265625 L 10.984375 0 L 4.171875 0 L 2.859375 -19.96875 L 8.859375 -19.96875 L 8.8125 -6.3125 L 14.328125 -19.96875 L 20.421875 -19.96875 L 21.078125 -6.375 L 25.8125 -19.96875 Z M 31.8125 -19.96875 "/></g></g></g><g fill="#f2f2f2" fill-opacity="1"><g transform="translate(45.053047, 41.312019)"><g><path d="M 13.375 -3.25 L 6.28125 -3.25 L 4.640625 0 L -1.1875 0 L 9.609375 -19.96875 L 16 -19.96875 L 19.75 0 L 13.875 0 Z M 12.71875 -7.484375 L 11.734375 -13.96875 L 8.4375 -7.484375 Z M 12.71875 -7.484375 "/></g></g></g><g fill="#f2f2f2" fill-opacity="1"><g transform="translate(65.975499, 41.312019)"><g><path d="M 11.28125 -20.984375 L 8.265625 -7.484375 L 3.515625 -7.484375 L 5.234375 -20.984375 Z M 4.53125 0.234375 C 3.664062 0.234375 2.984375 0.015625 2.484375 -0.421875 C 1.984375 -0.859375 1.734375 -1.425781 1.734375 -2.125 C 1.734375 -2.726562 1.894531 -3.289062 2.21875 -3.8125 C 2.550781 -4.332031 3.007812 -4.75 3.59375 -5.0625 C 4.175781 -5.375 4.828125 -5.53125 5.546875 -5.53125 C 6.398438 -5.53125 7.078125 -5.304688 7.578125 -4.859375 C 8.078125 -4.410156 8.328125 -3.835938 8.328125 -3.140625 C 8.328125 -2.203125 7.960938 -1.40625 7.234375 -0.75 C 6.503906 -0.09375 5.601562 0.234375 4.53125 0.234375 Z M 4.53125 0.234375 "/></g></g></g><g fill="#f2f2f2" fill-opacity="0.4"><g transform="translate(16.745027, 70.547873)"><g><path d="M 16.90625 -19.96875 L 14.59375 -6.734375 C 14.195312 -4.492188 13.285156 -2.773438 11.859375 -1.578125 C 10.429688 -0.390625 8.648438 0.203125 6.515625 0.203125 C 4.546875 0.203125 2.992188 -0.273438 1.859375 -1.234375 C 0.734375 -2.203125 0.171875 -3.601562 0.171875 -5.4375 C 0.171875 -5.96875 0.226562 -6.546875 0.34375 -7.171875 L 5.859375 -7.171875 C 5.804688 -6.867188 5.78125 -6.582031 5.78125 -6.3125 C 5.78125 -5.3125 6.242188 -4.8125 7.171875 -4.8125 C 8.148438 -4.8125 8.769531 -5.453125 9.03125 -6.734375 L 11.359375 -19.96875 Z M 16.90625 -19.96875 "/></g></g></g><g fill="#f2f2f2" fill-opacity="0.4"><g transform="translate(35.517298, 70.547873)"><g><path d="M 9.125 -19.96875 L 7.109375 -8.390625 C 7.054688 -8.046875 7.03125 -7.722656 7.03125 -7.421875 C 7.03125 -6.660156 7.234375 -6.070312 7.640625 -5.65625 C 8.046875 -5.25 8.671875 -5.046875 9.515625 -5.046875 C 10.535156 -5.046875 11.359375 -5.335938 11.984375 -5.921875 C 12.609375 -6.503906 13.015625 -7.328125 13.203125 -8.390625 L 15.234375 -19.96875 L 20.796875 -19.96875 L 18.75 -8.390625 C 18.425781 -6.492188 17.773438 -4.90625 16.796875 -3.625 C 15.816406 -2.34375 14.617188 -1.382812 13.203125 -0.75 C 11.785156 -0.113281 10.238281 0.203125 8.5625 0.203125 C 6.382812 0.203125 4.640625 -0.363281 3.328125 -1.5 C 2.015625 -2.632812 1.359375 -4.257812 1.359375 -6.375 C 1.359375 -7.050781 1.425781 -7.722656 1.5625 -8.390625 L 3.59375 -19.96875 Z M 9.125 -19.96875 "/></g></g></g><g fill="#f2f2f2" fill-opacity="0.4"><g transform="translate(57.91353, 70.547873)"><g><path d="M 11.28125 -20.984375 L 8.265625 -7.484375 L 3.515625 -7.484375 L 5.234375 -20.984375 Z M 4.53125 0.234375 C 3.664062 0.234375 2.984375 0.015625 2.484375 -0.421875 C 1.984375 -0.859375 1.734375 -1.425781 1.734375 -2.125 C 1.734375 -2.726562 1.894531 -3.289062 2.21875 -3.8125 C 2.550781 -4.332031 3.007812 -4.75 3.59375 -5.0625 C 4.175781 -5.375 4.828125 -5.53125 5.546875 -5.53125 C 6.398438 -5.53125 7.078125 -5.304688 7.578125 -4.859375 C 8.078125 -4.410156 8.328125 -3.835938 8.328125 -3.140625 C 8.328125 -2.203125 7.960938 -1.40625 7.234375 -0.75 C 6.503906 -0.09375 5.601562 0.234375 4.53125 0.234375 Z M 4.53125 0.234375 "/></g></g></g><g fill="#f2f2f2" fill-opacity="1"><g transform="translate(15.042375, 68.845221)"><g><path d="M 16.90625 -19.96875 L 14.59375 -6.734375 C 14.195312 -4.492188 13.285156 -2.773438 11.859375 -1.578125 C 10.429688 -0.390625 8.648438 0.203125 6.515625 0.203125 C 4.546875 0.203125 2.992188 -0.273438 1.859375 -1.234375 C 0.734375 -2.203125 0.171875 -3.601562 0.171875 -5.4375 C 0.171875 -5.96875 0.226562 -6.546875 0.34375 -7.171875 L 5.859375 -7.171875 C 5.804688 -6.867188 5.78125 -6.582031 5.78125 -6.3125 C 5.78125 -5.3125 6.242188 -4.8125 7.171875 -4.8125 C 8.148438 -4.8125 8.769531 -5.453125 9.03125 -6.734375 L 11.359375 -19.96875 Z M 16.90625 -19.96875 "/></g></g></g><g fill="#f2f2f2" fill-opacity="1"><g transform="translate(33.814646, 68.845221)"><g><path d="M 9.125 -19.96875 L 7.109375 -8.390625 C 7.054688 -8.046875 7.03125 -7.722656 7.03125 -7.421875 C 7.03125 -6.660156 7.234375 -6.070312 7.640625 -5.65625 C 8.046875 -5.25 8.671875 -5.046875 9.515625 -5.046875 C 10.535156 -5.046875 11.359375 -5.335938 11.984375 -5.921875 C 12.609375 -6.503906 13.015625 -7.328125 13.203125 -8.390625 L 15.234375 -19.96875 L 20.796875 -19.96875 L 18.75 -8.390625 C 18.425781 -6.492188 17.773438 -4.90625 16.796875 -3.625 C 15.816406 -2.34375 14.617188 -1.382812 13.203125 -0.75 C 11.785156 -0.113281 10.238281 0.203125 8.5625 0.203125 C 6.382812 0.203125 4.640625 -0.363281 3.328125 -1.5 C 2.015625 -2.632812 1.359375 -4.257812 1.359375 -6.375 C 1.359375 -7.050781 1.425781 -7.722656 1.5625 -8.390625 L 3.59375 -19.96875 Z M 9.125 -19.96875 "/></g></g></g><g fill="#f2f2f2" fill-opacity="1"><g transform="translate(56.210878, 68.845221)"><g><path d="M 11.28125 -20.984375 L 8.265625 -7.484375 L 3.515625 -7.484375 L 5.234375 -20.984375 Z M 4.53125 0.234375 C 3.664062 0.234375 2.984375 0.015625 2.484375 -0.421875 C 1.984375 -0.859375 1.734375 -1.425781 1.734375 -2.125 C 1.734375 -2.726562 1.894531 -3.289062 2.21875 -3.8125 C 2.550781 -4.332031 3.007812 -4.75 3.59375 -5.0625 C 4.175781 -5.375 4.828125 -5.53125 5.546875 -5.53125 C 6.398438 -5.53125 7.078125 -5.304688 7.578125 -4.859375 C 8.078125 -4.410156 8.328125 -3.835938 8.328125 -3.140625 C 8.328125 -2.203125 7.960938 -1.40625 7.234375 -0.75 C 6.503906 -0.09375 5.601562 0.234375 4.53125 0.234375 Z M 4.53125 0.234375 "/></g></g></g><g fill="#f2f2f2" fill-opacity="0.4"><g transform="translate(16.745027, 43.014671)"><g><path d="M 31.8125 -19.96875 L 23.40625 0 L 16.578125 0 L 15.984375 -12.265625 L 10.984375 0 L 4.171875 0 L 2.859375 -19.96875 L 8.859375 -19.96875 L 8.8125 -6.3125 L 14.328125 -19.96875 L 20.421875 -19.96875 L 21.078125 -6.375 L 25.8125 -19.96875 Z M 31.8125 -19.96875 "/></g></g></g><g fill="#f2f2f2" fill-opacity="0.4"><g transform="translate(46.7557, 43.014671)"><g><path d="M 13.375 -3.25 L 6.28125 -3.25 L 4.640625 0 L -1.1875 0 L 9.609375 -19.96875 L 16 -19.96875 L 19.75 0 L 13.875 0 Z M 12.71875 -7.484375 L 11.734375 -13.96875 L 8.4375 -7.484375 Z M 12.71875 -7.484375 "/></g></g></g><g fill="#f2f2f2" fill-opacity="0.4"><g transform="translate(67.678151, 43.014671)"><g><path d="M 11.28125 -20.984375 L 8.265625 -7.484375 L 3.515625 -7.484375 L 5.234375 -20.984375 Z M 4.53125 0.234375 C 3.664062 0.234375 2.984375 0.015625 2.484375 -0.421875 C 1.984375 -0.859375 1.734375 -1.425781 1.734375 -2.125 C 1.734375 -2.726562 1.894531 -3.289062 2.21875 -3.8125 C 2.550781 -4.332031 3.007812 -4.75 3.59375 -5.0625 C 4.175781 -5.375 4.828125 -5.53125 5.546875 -5.53125 C 6.398438 -5.53125 7.078125 -5.304688 7.578125 -4.859375 C 8.078125 -4.410156 8.328125 -3.835938 8.328125 -3.140625 C 8.328125 -2.203125 7.960938 -1.40625 7.234375 -0.75 C 6.503906 -0.09375 5.601562 0.234375 4.53125 0.234375 Z M 4.53125 0.234375 "/></g></g></g><g fill="#f2f2f2" fill-opacity="1"><g transform="translate(15.042375, 41.312019)"><g><path d="M 31.8125 -19.96875 L 23.40625 0 L 16.578125 0 L 15.984375 -12.265625 L 10.984375 0 L 4.171875 0 L 2.859375 -19.96875 L 8.859375 -19.96875 L 8.8125 -6.3125 L 14.328125 -19.96875 L 20.421875 -19.96875 L 21.078125 -6.375 L 25.8125 -19.96875 Z M 31.8125 -19.96875 "/></g></g></g><g fill="#f2f2f2" fill-opacity="1"><g transform="translate(45.053047, 41.312019)"><g><path d="M 13.375 -3.25 L 6.28125 -3.25 L 4.640625 0 L -1.1875 0 L 9.609375 -19.96875 L 16 -19.96875 L 19.75 0 L 13.875 0 Z M 12.71875 -7.484375 L 11.734375 -13.96875 L 8.4375 -7.484375 Z M 12.71875 -7.484375 "/></g></g></g><g fill="#f2f2f2" fill-opacity="1"><g transform="translate(65.975499, 41.312019)"><g><path d="M 11.28125 -20.984375 L 8.265625 -7.484375 L 3.515625 -7.484375 L 5.234375 -20.984375 Z M 4.53125 0.234375 C 3.664062 0.234375 2.984375 0.015625 2.484375 -0.421875 C 1.984375 -0.859375 1.734375 -1.425781 1.734375 -2.125 C 1.734375 -2.726562 1.894531 -3.289062 2.21875 -3.8125 C 2.550781 -4.332031 3.007812 -4.75 3.59375 -5.0625 C 4.175781 -5.375 4.828125 -5.53125 5.546875 -5.53125 C 6.398438 -5.53125 7.078125 -5.304688 7.578125 -4.859375 C 8.078125 -4.410156 8.328125 -3.835938 8.328125 -3.140625 C 8.328125 -2.203125 7.960938 -1.40625 7.234375 -0.75 C 6.503906 -0.09375 5.601562 0.234375 4.53125 0.234375 Z M 4.53125 0.234375 "/></g></g></g><g fill="#f2f2f2" fill-opacity="0.4"><g transform="translate(16.745027, 70.547873)"><g><path d="M 16.90625 -19.96875 L 14.59375 -6.734375 C 14.195312 -4.492188 13.285156 -2.773438 11.859375 -1.578125 C 10.429688 -0.390625 8.648438 0.203125 6.515625 0.203125 C 4.546875 0.203125 2.992188 -0.273438 1.859375 -1.234375 C 0.734375 -2.203125 0.171875 -3.601562 0.171875 -5.4375 C 0.171875 -5.96875 0.226562 -6.546875 0.34375 -7.171875 L 5.859375 -7.171875 C 5.804688 -6.867188 5.78125 -6.582031 5.78125 -6.3125 C 5.78125 -5.3125 6.242188 -4.8125 7.171875 -4.8125 C 8.148438 -4.8125 8.769531 -5.453125 9.03125 -6.734375 L 11.359375 -19.96875 Z M 16.90625 -19.96875 "/></g></g></g><g fill="#f2f2f2" fill-opacity="0.4"><g transform="translate(35.517298, 70.547873)"><g><path d="M 9.125 -19.96875 L 7.109375 -8.390625 C 7.054688 -8.046875 7.03125 -7.722656 7.03125 -7.421875 C 7.03125 -6.660156 7.234375 -6.070312 7.640625 -5.65625 C 8.046875 -5.25 8.671875 -5.046875 9.515625 -5.046875 C 10.535156 -5.046875 11.359375 -5.335938 11.984375 -5.921875 C 12.609375 -6.503906 13.015625 -7.328125 13.203125 -8.390625 L 15.234375 -19.96875 L 20.796875 -19.96875 L 18.75 -8.390625 C 18.425781 -6.492188 17.773438 -4.90625 16.796875 -3.625 C 15.816406 -2.34375 14.617188 -1.382812 13.203125 -0.75 C 11.785156 -0.113281 10.238281 0.203125 8.5625 0.203125 C 6.382812 0.203125 4.640625 -0.363281 3.328125 -1.5 C 2.015625 -2.632812 1.359375 -4.257812 1.359375 -6.375 C 1.359375 -7.050781 1.425781 -7.722656 1.5625 -8.390625 L 3.59375 -19.96875 Z M 9.125 -19.96875 "/></g></g></g><g fill="#f2f2f2" fill-opacity="0.4"><g transform="translate(57.91353, 70.547873)"><g><path d="M 11.28125 -20.984375 L 8.265625 -7.484375 L 3.515625 -7.484375 L 5.234375 -20.984375 Z M 4.53125 0.234375 C 3.664062 0.234375 2.984375 0.015625 2.484375 -0.421875 C 1.984375 -0.859375 1.734375 -1.425781 1.734375 -2.125 C 1.734375 -2.726562 1.894531 -3.289062 2.21875 -3.8125 C 2.550781 -4.332031 3.007812 -4.75 3.59375 -5.0625 C 4.175781 -5.375 4.828125 -5.53125 5.546875 -5.53125 C 6.398438 -5.53125 7.078125 -5.304688 7.578125 -4.859375 C 8.078125 -4.410156 8.328125 -3.835938 8.328125 -3.140625 C 8.328125 -2.203125 7.960938 -1.40625 7.234375 -0.75 C 6.503906 -0.09375 5.601562 0.234375 4.53125 0.234375 Z M 4.53125 0.234375 "/></g></g></g><g fill="#f2f2f2" fill-opacity="1"><g transform="translate(15.042375, 68.845221)"><g><path d="M 16.90625 -19.96875 L 14.59375 -6.734375 C 14.195312 -4.492188 13.285156 -2.773438 11.859375 -1.578125 C 10.429688 -0.390625 8.648438 0.203125 6.515625 0.203125 C 4.546875 0.203125 2.992188 -0.273438 1.859375 -1.234375 C 0.734375 -2.203125 0.171875 -3.601562 0.171875 -5.4375 C 0.171875 -5.96875 0.226562 -6.546875 0.34375 -7.171875 L 5.859375 -7.171875 C 5.804688 -6.867188 5.78125 -6.582031 5.78125 -6.3125 C 5.78125 -5.3125 6.242188 -4.8125 7.171875 -4.8125 C 8.148438 -4.8125 8.769531 -5.453125 9.03125 -6.734375 L 11.359375 -19.96875 Z M 16.90625 -19.96875 "/></g></g></g><g fill="#f2f2f2" fill-opacity="1"><g transform="translate(33.814646, 68.845221)"><g><path d="M 9.125 -19.96875 L 7.109375 -8.390625 C 7.054688 -8.046875 7.03125 -7.722656 7.03125 -7.421875 C 7.03125 -6.660156 7.234375 -6.070312 7.640625 -5.65625 C 8.046875 -5.25 8.671875 -5.046875 9.515625 -5.046875 C 10.535156 -5.046875 11.359375 -5.335938 11.984375 -5.921875 C 12.609375 -6.503906 13.015625 -7.328125 13.203125 -8.390625 L 15.234375 -19.96875 L 20.796875 -19.96875 L 18.75 -8.390625 C 18.425781 -6.492188 17.773438 -4.90625 16.796875 -3.625 C 15.816406 -2.34375 14.617188 -1.382812 13.203125 -0.75 C 11.785156 -0.113281 10.238281 0.203125 8.5625 0.203125 C 6.382812 0.203125 4.640625 -0.363281 3.328125 -1.5 C 2.015625 -2.632812 1.359375 -4.257812 1.359375 -6.375 C 1.359375 -7.050781 1.425781 -7.722656 1.5625 -8.390625 L 3.59375 -19.96875 Z M 9.125 -19.96875 "/></g></g></g><g fill="#f2f2f2" fill-opacity="1"><g transform="translate(56.210878, 68.845221)"><g><path d="M 11.28125 -20.984375 L 8.265625 -7.484375 L 3.515625 -7.484375 L 5.234375 -20.984375 Z M 4.53125 0.234375 C 3.664062 0.234375 2.984375 0.015625 2.484375 -0.421875 C 1.984375 -0.859375 1.734375 -1.425781 1.734375 -2.125 C 1.734375 -2.726562 1.894531 -3.289062 2.21875 -3.8125 C 2.550781 -4.332031 3.007812 -4.75 3.59375 -5.0625 C 4.175781 -5.375 4.828125 -5.53125 5.546875 -5.53125 C 6.398438 -5.53125 7.078125 -5.304688 7.578125 -4.859375 C 8.078125 -4.410156 8.328125 -3.835938 8.328125 -3.140625 C 8.328125 -2.203125 7.960938 -1.40625 7.234375 -0.75 C 6.503906 -0.09375 5.601562 0.234375 4.53125 0.234375 Z M 4.53125 0.234375 "/></g></g></g></svg>