<svg xmlns="http://www.w3.org/2000/svg" xmlns:xlink="http://www.w3.org/1999/xlink" width="333" zoomAndPan="magnify" viewBox="0 0 249.75 77.999999" height="104" preserveAspectRatio="xMidYMid meet" version="1.0"><defs><g/><clipPath id="ff0aee29bc"><path d="M 0 3.988281 L 61.4375 3.988281 L 61.4375 65.425781 L 0 65.425781 Z M 0 3.988281 " clip-rule="nonzero"/></clipPath></defs><g clip-path="url(#ff0aee29bc)"><path fill="#f2f2f2" d="M 52.011719 35.765625 L 46.324219 32.476562 C 45.976562 31.222656 45.617188 29.777344 45.308594 28.238281 C 44.714844 25.265625 44.242188 21.515625 44.628906 18.144531 C 44.925781 18.304688 45.214844 18.46875 45.507812 18.628906 C 46.429688 19.136719 47.347656 19.648438 48.269531 20.15625 L 50.960938 21.644531 L 53.273438 22.921875 C 53.816406 23.222656 54.355469 23.519531 54.894531 23.816406 C 55.097656 23.929688 55.300781 24.042969 55.503906 24.15625 Z M 46.019531 51.632812 L 15.230469 51.632812 L 15.230469 33.414062 C 15.644531 31.988281 16.101562 30.238281 16.480469 28.34375 C 17.046875 25.507812 17.328125 22.910156 17.316406 20.621094 C 17.3125 19.640625 17.253906 18.71875 17.144531 17.855469 C 17.292969 17.773438 17.441406 17.6875 17.59375 17.605469 C 18.332031 17.199219 19.070312 16.789062 19.808594 16.382812 C 20.074219 16.234375 20.34375 16.085938 20.609375 15.941406 C 20.710938 15.882812 20.8125 15.828125 20.914062 15.773438 C 21.164062 15.632812 21.445312 15.34375 21.75 15.359375 C 22.019531 15.375 22.367188 15.527344 23 15.804688 C 25.574219 16.925781 31.597656 19.550781 39.308594 15.414062 C 39.5 15.3125 39.683594 15.367188 39.847656 15.488281 C 39.859375 15.496094 39.871094 15.503906 39.882812 15.511719 C 40.042969 15.625 40.21875 15.707031 40.394531 15.800781 C 40.613281 15.925781 40.835938 16.046875 41.054688 16.167969 C 41.703125 16.527344 42.351562 16.886719 43 17.242188 C 43.382812 17.453125 43.765625 17.667969 44.148438 17.878906 C 44.039062 18.738281 43.980469 19.652344 43.976562 20.621094 C 43.96875 22.910156 44.25 25.507812 44.816406 28.34375 C 45.179688 30.167969 45.617188 31.859375 46.019531 33.257812 Z M 46.019531 53.867188 L 15.230469 53.867188 L 15.230469 52.140625 L 46.019531 52.140625 Z M 9.238281 35.765625 L 5.746094 24.15625 L 5.898438 24.070312 C 6.304688 23.84375 6.710938 23.621094 7.121094 23.394531 C 7.832031 23 8.546875 22.605469 9.257812 22.210938 C 10.160156 21.714844 11.058594 21.21875 11.957031 20.722656 C 12.925781 20.1875 13.890625 19.652344 14.855469 19.121094 C 15.457031 18.785156 16.0625 18.453125 16.664062 18.121094 C 17.054688 21.5 16.582031 25.257812 15.988281 28.238281 C 15.683594 29.765625 15.324219 31.199219 14.980469 32.445312 Z M 30.625 3.988281 C 13.710938 3.988281 0 17.699219 0 34.613281 C 0 51.527344 13.710938 65.238281 30.625 65.238281 C 47.539062 65.238281 61.25 51.527344 61.25 34.613281 C 61.25 17.699219 47.539062 3.988281 30.625 3.988281 " fill-opacity="1" fill-rule="nonzero"/></g><path fill="#f2f2f2" d="M 29.113281 18.503906 C 26.167969 18.207031 23.949219 17.242188 22.625 16.664062 C 22.554688 16.632812 22.480469 16.597656 22.40625 16.566406 C 24.148438 19.261719 27.179688 21.042969 30.625 21.042969 C 33.988281 21.042969 36.953125 19.347656 38.714844 16.761719 L 38.71875 16.761719 C 36.132812 17.980469 33.496094 18.59375 30.847656 18.59375 C 30.269531 18.59375 29.691406 18.5625 29.113281 18.503906 " fill-opacity="1" fill-rule="nonzero"/><g fill="#f2f2f2" fill-opacity="0.4"><g transform="translate(70.820701, 55.140727)"><g><path d="M 32.015625 -20.109375 L 23.546875 0 L 16.6875 0 L 16.078125 -12.34375 L 11.0625 0 L 4.1875 0 L 2.875 -20.109375 L 8.921875 -20.109375 L 8.875 -6.359375 L 14.421875 -20.109375 L 20.5625 -20.109375 L 21.21875 -6.421875 L 25.984375 -20.109375 Z M 32.015625 -20.109375 "/></g></g></g><g fill="#f2f2f2" fill-opacity="0.4"><g transform="translate(107.797358, 55.140727)"><g><path d="M 13.453125 -3.28125 L 6.328125 -3.28125 L 4.671875 0 L -1.203125 0 L 9.671875 -20.109375 L 16.109375 -20.109375 L 19.875 0 L 13.96875 0 Z M 12.796875 -7.53125 L 11.8125 -14.0625 L 8.5 -7.53125 Z M 12.796875 -7.53125 "/></g></g></g><g fill="#f2f2f2" fill-opacity="0.4"><g transform="translate(135.623393, 55.140727)"><g><path d="M 11.34375 -21.125 L 8.328125 -7.53125 L 3.53125 -7.53125 L 5.28125 -21.125 Z M 4.5625 0.234375 C 3.6875 0.234375 2.992188 0.015625 2.484375 -0.421875 C 1.984375 -0.859375 1.734375 -1.429688 1.734375 -2.140625 C 1.734375 -2.742188 1.898438 -3.304688 2.234375 -3.828125 C 2.566406 -4.359375 3.023438 -4.78125 3.609375 -5.09375 C 4.203125 -5.40625 4.863281 -5.5625 5.59375 -5.5625 C 6.445312 -5.5625 7.125 -5.335938 7.625 -4.890625 C 8.132812 -4.441406 8.390625 -3.867188 8.390625 -3.171875 C 8.390625 -2.210938 8.019531 -1.40625 7.28125 -0.75 C 6.550781 -0.09375 5.644531 0.234375 4.5625 0.234375 Z M 4.5625 0.234375 "/></g></g></g><g fill="#f2f2f2" fill-opacity="0.4"><g transform="translate(153.985241, 55.140727)"><g/></g></g><g fill="#f2f2f2" fill-opacity="0.4"><g transform="translate(166.018629, 55.140727)"><g><path d="M 17.03125 -20.109375 L 14.6875 -6.78125 C 14.289062 -4.519531 13.375 -2.789062 11.9375 -1.59375 C 10.5 -0.394531 8.707031 0.203125 6.5625 0.203125 C 4.582031 0.203125 3.019531 -0.28125 1.875 -1.25 C 0.738281 -2.21875 0.171875 -3.625 0.171875 -5.46875 C 0.171875 -6 0.226562 -6.582031 0.34375 -7.21875 L 5.90625 -7.21875 C 5.84375 -6.914062 5.8125 -6.628906 5.8125 -6.359375 C 5.8125 -5.347656 6.28125 -4.84375 7.21875 -4.84375 C 8.207031 -4.84375 8.832031 -5.488281 9.09375 -6.78125 L 11.4375 -20.109375 Z M 17.03125 -20.109375 "/></g></g></g><g fill="#f2f2f2" fill-opacity="0.4"><g transform="translate(188.970045, 55.140727)"><g><path d="M 9.1875 -20.109375 L 7.15625 -8.4375 C 7.101562 -8.09375 7.078125 -7.769531 7.078125 -7.46875 C 7.078125 -6.707031 7.28125 -6.117188 7.6875 -5.703125 C 8.09375 -5.285156 8.722656 -5.078125 9.578125 -5.078125 C 10.609375 -5.078125 11.4375 -5.367188 12.0625 -5.953125 C 12.6875 -6.546875 13.09375 -7.375 13.28125 -8.4375 L 15.34375 -20.109375 L 20.9375 -20.109375 L 18.875 -8.4375 C 18.550781 -6.539062 17.894531 -4.941406 16.90625 -3.640625 C 15.914062 -2.347656 14.707031 -1.382812 13.28125 -0.75 C 11.863281 -0.113281 10.304688 0.203125 8.609375 0.203125 C 6.421875 0.203125 4.664062 -0.363281 3.34375 -1.5 C 2.03125 -2.644531 1.375 -4.285156 1.375 -6.421875 C 1.375 -7.097656 1.4375 -7.769531 1.5625 -8.4375 L 3.625 -20.109375 Z M 9.1875 -20.109375 "/></g></g></g><g fill="#f2f2f2" fill-opacity="0.4"><g transform="translate(215.570306, 55.140727)"><g><path d="M 11.34375 -21.125 L 8.328125 -7.53125 L 3.53125 -7.53125 L 5.28125 -21.125 Z M 4.5625 0.234375 C 3.6875 0.234375 2.992188 0.015625 2.484375 -0.421875 C 1.984375 -0.859375 1.734375 -1.429688 1.734375 -2.140625 C 1.734375 -2.742188 1.898438 -3.304688 2.234375 -3.828125 C 2.566406 -4.359375 3.023438 -4.78125 3.609375 -5.09375 C 4.203125 -5.40625 4.863281 -5.5625 5.59375 -5.5625 C 6.445312 -5.5625 7.125 -5.335938 7.625 -4.890625 C 8.132812 -4.441406 8.390625 -3.867188 8.390625 -3.171875 C 8.390625 -2.210938 8.019531 -1.40625 7.28125 -0.75 C 6.550781 -0.09375 5.644531 0.234375 4.5625 0.234375 Z M 4.5625 0.234375 "/></g></g></g><g fill="#f2f2f2" fill-opacity="1"><g transform="translate(69.10636, 53.426384)"><g><path d="M 32.015625 -20.109375 L 23.546875 0 L 16.6875 0 L 16.078125 -12.34375 L 11.0625 0 L 4.1875 0 L 2.875 -20.109375 L 8.921875 -20.109375 L 8.875 -6.359375 L 14.421875 -20.109375 L 20.5625 -20.109375 L 21.21875 -6.421875 L 25.984375 -20.109375 Z M 32.015625 -20.109375 "/></g></g></g><g fill="#f2f2f2" fill-opacity="1"><g transform="translate(106.083017, 53.426384)"><g><path d="M 13.453125 -3.28125 L 6.328125 -3.28125 L 4.671875 0 L -1.203125 0 L 9.671875 -20.109375 L 16.109375 -20.109375 L 19.875 0 L 13.96875 0 Z M 12.796875 -7.53125 L 11.8125 -14.0625 L 8.5 -7.53125 Z M 12.796875 -7.53125 "/></g></g></g><g fill="#f2f2f2" fill-opacity="1"><g transform="translate(133.909051, 53.426384)"><g><path d="M 11.34375 -21.125 L 8.328125 -7.53125 L 3.53125 -7.53125 L 5.28125 -21.125 Z M 4.5625 0.234375 C 3.6875 0.234375 2.992188 0.015625 2.484375 -0.421875 C 1.984375 -0.859375 1.734375 -1.429688 1.734375 -2.140625 C 1.734375 -2.742188 1.898438 -3.304688 2.234375 -3.828125 C 2.566406 -4.359375 3.023438 -4.78125 3.609375 -5.09375 C 4.203125 -5.40625 4.863281 -5.5625 5.59375 -5.5625 C 6.445312 -5.5625 7.125 -5.335938 7.625 -4.890625 C 8.132812 -4.441406 8.390625 -3.867188 8.390625 -3.171875 C 8.390625 -2.210938 8.019531 -1.40625 7.28125 -0.75 C 6.550781 -0.09375 5.644531 0.234375 4.5625 0.234375 Z M 4.5625 0.234375 "/></g></g></g><g fill="#f2f2f2" fill-opacity="1"><g transform="translate(152.2709, 53.426384)"><g/></g></g><g fill="#f2f2f2" fill-opacity="1"><g transform="translate(164.304287, 53.426384)"><g><path d="M 17.03125 -20.109375 L 14.6875 -6.78125 C 14.289062 -4.519531 13.375 -2.789062 11.9375 -1.59375 C 10.5 -0.394531 8.707031 0.203125 6.5625 0.203125 C 4.582031 0.203125 3.019531 -0.28125 1.875 -1.25 C 0.738281 -2.21875 0.171875 -3.625 0.171875 -5.46875 C 0.171875 -6 0.226562 -6.582031 0.34375 -7.21875 L 5.90625 -7.21875 C 5.84375 -6.914062 5.8125 -6.628906 5.8125 -6.359375 C 5.8125 -5.347656 6.28125 -4.84375 7.21875 -4.84375 C 8.207031 -4.84375 8.832031 -5.488281 9.09375 -6.78125 L 11.4375 -20.109375 Z M 17.03125 -20.109375 "/></g></g></g><g fill="#f2f2f2" fill-opacity="1"><g transform="translate(187.255704, 53.426384)"><g><path d="M 9.1875 -20.109375 L 7.15625 -8.4375 C 7.101562 -8.09375 7.078125 -7.769531 7.078125 -7.46875 C 7.078125 -6.707031 7.28125 -6.117188 7.6875 -5.703125 C 8.09375 -5.285156 8.722656 -5.078125 9.578125 -5.078125 C 10.609375 -5.078125 11.4375 -5.367188 12.0625 -5.953125 C 12.6875 -6.546875 13.09375 -7.375 13.28125 -8.4375 L 15.34375 -20.109375 L 20.9375 -20.109375 L 18.875 -8.4375 C 18.550781 -6.539062 17.894531 -4.941406 16.90625 -3.640625 C 15.914062 -2.347656 14.707031 -1.382812 13.28125 -0.75 C 11.863281 -0.113281 10.304688 0.203125 8.609375 0.203125 C 6.421875 0.203125 4.664062 -0.363281 3.34375 -1.5 C 2.03125 -2.644531 1.375 -4.285156 1.375 -6.421875 C 1.375 -7.097656 1.4375 -7.769531 1.5625 -8.4375 L 3.625 -20.109375 Z M 9.1875 -20.109375 "/></g></g></g><g fill="#f2f2f2" fill-opacity="1"><g transform="translate(213.855964, 53.426384)"><g><path d="M 11.34375 -21.125 L 8.328125 -7.53125 L 3.53125 -7.53125 L 5.28125 -21.125 Z M 4.5625 0.234375 C 3.6875 0.234375 2.992188 0.015625 2.484375 -0.421875 C 1.984375 -0.859375 1.734375 -1.429688 1.734375 -2.140625 C 1.734375 -2.742188 1.898438 -3.304688 2.234375 -3.828125 C 2.566406 -4.359375 3.023438 -4.78125 3.609375 -5.09375 C 4.203125 -5.40625 4.863281 -5.5625 5.59375 -5.5625 C 6.445312 -5.5625 7.125 -5.335938 7.625 -4.890625 C 8.132812 -4.441406 8.390625 -3.867188 8.390625 -3.171875 C 8.390625 -2.210938 8.019531 -1.40625 7.28125 -0.75 C 6.550781 -0.09375 5.644531 0.234375 4.5625 0.234375 Z M 4.5625 0.234375 "/></g></g></g><g fill="#f2f2f2" fill-opacity="0.4"><g transform="translate(71.565561, 23.623009)"><g><path d="M 10.890625 -11.3125 L 10.390625 -8.5 L 7.390625 -8.5 L 5.875 0 L 2.328125 0 L 3.84375 -8.5 L 0.859375 -8.5 L 1.359375 -11.3125 Z M 10.890625 -11.3125 "/></g></g></g><g fill="#f2f2f2" fill-opacity="0.4"><g transform="translate(85.19753, 23.623009)"><g><path d="M 5.546875 0.109375 C 4.585938 0.109375 3.742188 -0.0859375 3.015625 -0.484375 C 2.296875 -0.878906 1.738281 -1.4375 1.34375 -2.15625 C 0.945312 -2.875 0.75 -3.695312 0.75 -4.625 C 0.75 -5.976562 1.023438 -7.171875 1.578125 -8.203125 C 2.140625 -9.242188 2.925781 -10.054688 3.9375 -10.640625 C 4.945312 -11.222656 6.109375 -11.515625 7.421875 -11.515625 C 8.398438 -11.515625 9.253906 -11.316406 9.984375 -10.921875 C 10.710938 -10.535156 11.273438 -9.988281 11.671875 -9.28125 C 12.066406 -8.570312 12.265625 -7.753906 12.265625 -6.828125 C 12.265625 -5.484375 11.984375 -4.28125 11.421875 -3.21875 C 10.859375 -2.164062 10.066406 -1.347656 9.046875 -0.765625 C 8.035156 -0.179688 6.867188 0.109375 5.546875 0.109375 Z M 6.09375 -3.203125 C 6.644531 -3.203125 7.125 -3.347656 7.53125 -3.640625 C 7.945312 -3.929688 8.257812 -4.316406 8.46875 -4.796875 C 8.6875 -5.285156 8.796875 -5.8125 8.796875 -6.375 C 8.796875 -6.957031 8.632812 -7.410156 8.3125 -7.734375 C 8 -8.066406 7.550781 -8.234375 6.96875 -8.234375 C 6.414062 -8.234375 5.929688 -8.085938 5.515625 -7.796875 C 5.097656 -7.515625 4.78125 -7.128906 4.5625 -6.640625 C 4.34375 -6.160156 4.234375 -5.632812 4.234375 -5.0625 C 4.234375 -4.476562 4.390625 -4.019531 4.703125 -3.6875 C 5.015625 -3.363281 5.476562 -3.203125 6.09375 -3.203125 Z M 6.09375 -3.203125 "/></g></g></g><g fill="#f2f2f2" fill-opacity="0.4"><g transform="translate(101.578079, 23.623009)"><g><path d="M 7.921875 -5.890625 L 11.0625 0 L 6.84375 0 L 4.40625 -4.921875 L 3.546875 0 L 0 0 L 2 -11.3125 L 5.546875 -11.3125 L 4.703125 -6.546875 L 8.796875 -11.3125 L 12.796875 -11.3125 Z M 7.921875 -5.890625 "/></g></g></g><g fill="#f2f2f2" fill-opacity="0.4"><g transform="translate(117.431285, 23.623009)"><g><path d="M 5.546875 0.109375 C 4.585938 0.109375 3.742188 -0.0859375 3.015625 -0.484375 C 2.296875 -0.878906 1.738281 -1.4375 1.34375 -2.15625 C 0.945312 -2.875 0.75 -3.695312 0.75 -4.625 C 0.75 -5.976562 1.023438 -7.171875 1.578125 -8.203125 C 2.140625 -9.242188 2.925781 -10.054688 3.9375 -10.640625 C 4.945312 -11.222656 6.109375 -11.515625 7.421875 -11.515625 C 8.398438 -11.515625 9.253906 -11.316406 9.984375 -10.921875 C 10.710938 -10.535156 11.273438 -9.988281 11.671875 -9.28125 C 12.066406 -8.570312 12.265625 -7.753906 12.265625 -6.828125 C 12.265625 -5.484375 11.984375 -4.28125 11.421875 -3.21875 C 10.859375 -2.164062 10.066406 -1.347656 9.046875 -0.765625 C 8.035156 -0.179688 6.867188 0.109375 5.546875 0.109375 Z M 6.09375 -3.203125 C 6.644531 -3.203125 7.125 -3.347656 7.53125 -3.640625 C 7.945312 -3.929688 8.257812 -4.316406 8.46875 -4.796875 C 8.6875 -5.285156 8.796875 -5.8125 8.796875 -6.375 C 8.796875 -6.957031 8.632812 -7.410156 8.3125 -7.734375 C 8 -8.066406 7.550781 -8.234375 6.96875 -8.234375 C 6.414062 -8.234375 5.929688 -8.085938 5.515625 -7.796875 C 5.097656 -7.515625 4.78125 -7.128906 4.5625 -6.640625 C 4.34375 -6.160156 4.234375 -5.632812 4.234375 -5.0625 C 4.234375 -4.476562 4.390625 -4.019531 4.703125 -3.6875 C 5.015625 -3.363281 5.476562 -3.203125 6.09375 -3.203125 Z M 6.09375 -3.203125 "/></g></g></g><g fill="#f2f2f2" fill-opacity="1"><g transform="translate(70.60486, 22.662312)"><g><path d="M 10.890625 -11.3125 L 10.390625 -8.5 L 7.390625 -8.5 L 5.875 0 L 2.328125 0 L 3.84375 -8.5 L 0.859375 -8.5 L 1.359375 -11.3125 Z M 10.890625 -11.3125 "/></g></g></g><g fill="#f2f2f2" fill-opacity="1"><g transform="translate(84.236828, 22.662312)"><g><path d="M 5.546875 0.109375 C 4.585938 0.109375 3.742188 -0.0859375 3.015625 -0.484375 C 2.296875 -0.878906 1.738281 -1.4375 1.34375 -2.15625 C 0.945312 -2.875 0.75 -3.695312 0.75 -4.625 C 0.75 -5.976562 1.023438 -7.171875 1.578125 -8.203125 C 2.140625 -9.242188 2.925781 -10.054688 3.9375 -10.640625 C 4.945312 -11.222656 6.109375 -11.515625 7.421875 -11.515625 C 8.398438 -11.515625 9.253906 -11.316406 9.984375 -10.921875 C 10.710938 -10.535156 11.273438 -9.988281 11.671875 -9.28125 C 12.066406 -8.570312 12.265625 -7.753906 12.265625 -6.828125 C 12.265625 -5.484375 11.984375 -4.28125 11.421875 -3.21875 C 10.859375 -2.164062 10.066406 -1.347656 9.046875 -0.765625 C 8.035156 -0.179688 6.867188 0.109375 5.546875 0.109375 Z M 6.09375 -3.203125 C 6.644531 -3.203125 7.125 -3.347656 7.53125 -3.640625 C 7.945312 -3.929688 8.257812 -4.316406 8.46875 -4.796875 C 8.6875 -5.285156 8.796875 -5.8125 8.796875 -6.375 C 8.796875 -6.957031 8.632812 -7.410156 8.3125 -7.734375 C 8 -8.066406 7.550781 -8.234375 6.96875 -8.234375 C 6.414062 -8.234375 5.929688 -8.085938 5.515625 -7.796875 C 5.097656 -7.515625 4.78125 -7.128906 4.5625 -6.640625 C 4.34375 -6.160156 4.234375 -5.632812 4.234375 -5.0625 C 4.234375 -4.476562 4.390625 -4.019531 4.703125 -3.6875 C 5.015625 -3.363281 5.476562 -3.203125 6.09375 -3.203125 Z M 6.09375 -3.203125 "/></g></g></g><g fill="#f2f2f2" fill-opacity="1"><g transform="translate(100.617377, 22.662312)"><g><path d="M 7.921875 -5.890625 L 11.0625 0 L 6.84375 0 L 4.40625 -4.921875 L 3.546875 0 L 0 0 L 2 -11.3125 L 5.546875 -11.3125 L 4.703125 -6.546875 L 8.796875 -11.3125 L 12.796875 -11.3125 Z M 7.921875 -5.890625 "/></g></g></g><g fill="#f2f2f2" fill-opacity="1"><g transform="translate(116.470583, 22.662312)"><g><path d="M 5.546875 0.109375 C 4.585938 0.109375 3.742188 -0.0859375 3.015625 -0.484375 C 2.296875 -0.878906 1.738281 -1.4375 1.34375 -2.15625 C 0.945312 -2.875 0.75 -3.695312 0.75 -4.625 C 0.75 -5.976562 1.023438 -7.171875 1.578125 -8.203125 C 2.140625 -9.242188 2.925781 -10.054688 3.9375 -10.640625 C 4.945312 -11.222656 6.109375 -11.515625 7.421875 -11.515625 C 8.398438 -11.515625 9.253906 -11.316406 9.984375 -10.921875 C 10.710938 -10.535156 11.273438 -9.988281 11.671875 -9.28125 C 12.066406 -8.570312 12.265625 -7.753906 12.265625 -6.828125 C 12.265625 -5.484375 11.984375 -4.28125 11.421875 -3.21875 C 10.859375 -2.164062 10.066406 -1.347656 9.046875 -0.765625 C 8.035156 -0.179688 6.867188 0.109375 5.546875 0.109375 Z M 6.09375 -3.203125 C 6.644531 -3.203125 7.125 -3.347656 7.53125 -3.640625 C 7.945312 -3.929688 8.257812 -4.316406 8.46875 -4.796875 C 8.6875 -5.285156 8.796875 -5.8125 8.796875 -6.375 C 8.796875 -6.957031 8.632812 -7.410156 8.3125 -7.734375 C 8 -8.066406 7.550781 -8.234375 6.96875 -8.234375 C 6.414062 -8.234375 5.929688 -8.085938 5.515625 -7.796875 C 5.097656 -7.515625 4.78125 -7.128906 4.5625 -6.640625 C 4.34375 -6.160156 4.234375 -5.632812 4.234375 -5.0625 C 4.234375 -4.476562 4.390625 -4.019531 4.703125 -3.6875 C 5.015625 -3.363281 5.476562 -3.203125 6.09375 -3.203125 Z M 6.09375 -3.203125 "/></g></g></g></svg>