<svg xmlns="http://www.w3.org/2000/svg" xmlns:xlink="http://www.w3.org/1999/xlink" width="1366" zoomAndPan="magnify" viewBox="0 0 1024.5 216.749995" height="768" preserveAspectRatio="xMidYMid meet" version="1.0"><defs><g/><clipPath id="0e6b134afa"><path d="M 17.113281 13.519531 L 220.878906 13.519531 L 220.878906 200.054688 L 17.113281 200.054688 Z M 17.113281 13.519531 " clip-rule="nonzero"/></clipPath></defs><g clip-path="url(#0e6b134afa)"><path fill="#f2f2f2" d="M 190.9375 149.148438 C 188.394531 149.148438 186.699219 150.84375 186.699219 153.386719 L 186.699219 178.816406 C 186.699219 185.597656 180.765625 191.53125 173.984375 191.53125 L 38.355469 191.53125 C 31.574219 191.53125 25.640625 185.597656 25.640625 178.816406 L 25.640625 55.90625 L 186.699219 55.90625 L 186.699219 85.574219 C 186.699219 88.117188 188.394531 89.8125 190.9375 89.8125 C 193.480469 89.8125 195.175781 88.117188 195.175781 85.574219 L 195.175781 34.710938 C 195.175781 22.84375 185.851562 13.519531 173.984375 13.519531 L 38.355469 13.519531 C 26.488281 13.519531 17.164062 22.84375 17.164062 34.710938 L 17.164062 178.816406 C 17.164062 190.683594 26.488281 200.007812 38.355469 200.007812 L 173.984375 200.007812 C 185.851562 200.007812 195.175781 190.683594 195.175781 178.816406 L 195.175781 153.386719 C 195.175781 150.84375 193.480469 149.148438 190.9375 149.148438 Z M 72.265625 30.472656 C 74.808594 30.472656 76.503906 32.167969 76.503906 34.710938 C 76.503906 37.253906 74.808594 38.949219 72.265625 38.949219 C 69.722656 38.949219 68.027344 37.253906 68.027344 34.710938 C 68.027344 32.167969 69.722656 30.472656 72.265625 30.472656 Z M 55.308594 30.472656 C 57.851562 30.472656 59.550781 32.167969 59.550781 34.710938 C 59.550781 37.253906 57.851562 38.949219 55.308594 38.949219 C 52.765625 38.949219 51.070312 37.253906 51.070312 34.710938 C 51.070312 32.167969 52.765625 30.472656 55.308594 30.472656 Z M 38.355469 30.472656 C 40.898438 30.472656 42.59375 32.167969 42.59375 34.710938 C 42.59375 37.253906 40.898438 38.949219 38.355469 38.949219 C 35.8125 38.949219 34.117188 37.253906 34.117188 34.710938 C 34.117188 32.167969 35.8125 30.472656 38.355469 30.472656 Z M 207.890625 98.289062 L 199.414062 98.289062 C 196.871094 98.289062 195.175781 99.984375 195.175781 102.527344 L 195.175781 136.433594 C 195.175781 138.976562 196.871094 140.671875 199.414062 140.671875 C 201.957031 140.671875 203.652344 138.976562 203.652344 136.433594 L 203.652344 123.71875 L 207.890625 123.71875 C 214.671875 123.71875 220.605469 117.785156 220.605469 111.003906 C 220.605469 104.222656 214.671875 98.289062 207.890625 98.289062 Z M 207.890625 115.242188 L 203.652344 115.242188 L 203.652344 106.765625 L 207.890625 106.765625 C 210.433594 106.765625 212.128906 108.460938 212.128906 111.003906 C 212.128906 113.546875 210.433594 115.242188 207.890625 115.242188 Z M 165.507812 98.289062 C 162.964844 98.289062 161.269531 99.984375 161.269531 102.527344 L 161.269531 136.433594 C 161.269531 138.976562 162.964844 140.671875 165.507812 140.671875 C 168.050781 140.671875 169.746094 138.976562 169.746094 136.433594 L 169.746094 123.71875 L 173.984375 123.71875 C 180.765625 123.71875 186.699219 117.785156 186.699219 111.003906 C 186.699219 104.222656 180.765625 98.289062 173.984375 98.289062 Z M 178.222656 111.003906 C 178.222656 113.546875 176.527344 115.242188 173.984375 115.242188 L 169.746094 115.242188 L 169.746094 106.765625 L 173.984375 106.765625 C 176.527344 106.765625 178.222656 108.460938 178.222656 111.003906 Z M 131.601562 100.832031 L 118.886719 134.738281 C 118.039062 137.28125 118.886719 138.976562 121.429688 139.824219 C 123.972656 140.671875 125.667969 139.824219 126.515625 137.28125 L 129.058594 131.347656 L 142.621094 131.347656 L 145.164062 137.28125 C 146.011719 138.976562 147.707031 139.824219 149.402344 139.824219 C 150.25 139.824219 150.25 139.824219 151.097656 139.824219 C 153.640625 138.976562 154.488281 136.433594 153.640625 134.738281 L 140.925781 100.832031 C 138.382812 97.441406 133.296875 97.441406 131.601562 100.832031 Z M 132.449219 123.71875 L 135.839844 114.394531 L 139.230469 123.71875 Z M 132.449219 123.71875 " fill-opacity="1" fill-rule="nonzero"/></g><g fill="#f2f2f2" fill-opacity="0.4"><g transform="translate(329.732811, 158.20764)"><g><path d="M 139.625 -87.65625 L 102.6875 0 L 72.734375 0 L 70.125 -53.828125 L 48.234375 0 L 18.28125 0 L 12.5625 -87.65625 L 38.921875 -87.65625 L 38.671875 -27.71875 L 62.90625 -87.65625 L 89.640625 -87.65625 L 92.5 -27.96875 L 113.265625 -87.65625 Z M 139.625 -87.65625 "/></g></g></g><g fill="#f2f2f2" fill-opacity="0.4"><g transform="translate(490.947691, 158.20764)"><g><path d="M 58.6875 -14.296875 L 27.59375 -14.296875 L 20.390625 0 L -5.21875 0 L 42.140625 -87.65625 L 70.25 -87.65625 L 86.65625 0 L 60.921875 0 Z M 55.828125 -32.828125 L 51.46875 -61.296875 L 37.046875 -32.828125 Z M 55.828125 -32.828125 "/></g></g></g><g fill="#f2f2f2" fill-opacity="0.4"><g transform="translate(612.266683, 158.20764)"><g><path d="M 49.484375 -92.125 L 36.296875 -32.828125 L 15.421875 -32.828125 L 23 -92.125 Z M 19.890625 1 C 16.078125 1 13.070312 0.046875 10.875 -1.859375 C 8.675781 -3.765625 7.578125 -6.253906 7.578125 -9.328125 C 7.578125 -11.972656 8.300781 -14.4375 9.75 -16.71875 C 11.207031 -19 13.21875 -20.820312 15.78125 -22.1875 C 18.351562 -23.5625 21.21875 -24.25 24.375 -24.25 C 28.101562 -24.25 31.0625 -23.273438 33.25 -21.328125 C 35.445312 -19.378906 36.546875 -16.867188 36.546875 -13.796875 C 36.546875 -9.648438 34.953125 -6.144531 31.765625 -3.28125 C 28.578125 -0.425781 24.617188 1 19.890625 1 Z M 19.890625 1 "/></g></g></g><g fill="#f2f2f2" fill-opacity="0.4"><g transform="translate(692.322683, 158.20764)"><g/></g></g><g fill="#f2f2f2" fill-opacity="0.4"><g transform="translate(744.787162, 158.20764)"><g><path d="M 74.21875 -87.65625 L 64.03125 -29.59375 C 62.289062 -19.726562 58.289062 -12.179688 52.03125 -6.953125 C 45.769531 -1.734375 37.957031 0.875 28.59375 0.875 C 19.976562 0.875 13.179688 -1.238281 8.203125 -5.46875 C 3.234375 -9.695312 0.75 -15.832031 0.75 -23.875 C 0.75 -26.195312 0.992188 -28.722656 1.484375 -31.453125 L 25.734375 -31.453125 C 25.484375 -30.128906 25.359375 -28.882812 25.359375 -27.71875 C 25.359375 -23.332031 27.390625 -21.140625 31.453125 -21.140625 C 35.765625 -21.140625 38.5 -23.957031 39.65625 -29.59375 L 49.859375 -87.65625 Z M 74.21875 -87.65625 "/></g></g></g><g fill="#f2f2f2" fill-opacity="0.4"><g transform="translate(844.853264, 158.20764)"><g><path d="M 40.03125 -87.65625 L 31.203125 -36.796875 C 30.953125 -35.304688 30.828125 -33.898438 30.828125 -32.578125 C 30.828125 -29.253906 31.71875 -26.679688 33.5 -24.859375 C 35.28125 -23.035156 38.039062 -22.125 41.78125 -22.125 C 46.25 -22.125 49.847656 -23.410156 52.578125 -25.984375 C 55.316406 -28.554688 57.101562 -32.160156 57.9375 -36.796875 L 66.890625 -87.65625 L 91.25 -87.65625 L 82.3125 -36.796875 C 80.894531 -28.515625 78.03125 -21.550781 73.71875 -15.90625 C 69.414062 -10.269531 64.15625 -6.0625 57.9375 -3.28125 C 51.71875 -0.507812 44.921875 0.875 37.546875 0.875 C 28.015625 0.875 20.367188 -1.609375 14.609375 -6.578125 C 8.847656 -11.554688 5.96875 -18.6875 5.96875 -27.96875 C 5.96875 -30.957031 6.257812 -33.898438 6.84375 -36.796875 L 15.796875 -87.65625 Z M 40.03125 -87.65625 "/></g></g></g><g fill="#f2f2f2" fill-opacity="0.4"><g transform="translate(960.827994, 158.20764)"><g><path d="M 49.484375 -92.125 L 36.296875 -32.828125 L 15.421875 -32.828125 L 23 -92.125 Z M 19.890625 1 C 16.078125 1 13.070312 0.046875 10.875 -1.859375 C 8.675781 -3.765625 7.578125 -6.253906 7.578125 -9.328125 C 7.578125 -11.972656 8.300781 -14.4375 9.75 -16.71875 C 11.207031 -19 13.21875 -20.820312 15.78125 -22.1875 C 18.351562 -23.5625 21.21875 -24.25 24.375 -24.25 C 28.101562 -24.25 31.0625 -23.273438 33.25 -21.328125 C 35.445312 -19.378906 36.546875 -16.867188 36.546875 -13.796875 C 36.546875 -9.648438 34.953125 -6.144531 31.765625 -3.28125 C 28.578125 -0.425781 24.617188 1 19.890625 1 Z M 19.890625 1 "/></g></g></g><g fill="#f2f2f2" fill-opacity="1"><g transform="translate(322.258425, 150.733261)"><g><path d="M 139.625 -87.65625 L 102.6875 0 L 72.734375 0 L 70.125 -53.828125 L 48.234375 0 L 18.28125 0 L 12.5625 -87.65625 L 38.921875 -87.65625 L 38.671875 -27.71875 L 62.90625 -87.65625 L 89.640625 -87.65625 L 92.5 -27.96875 L 113.265625 -87.65625 Z M 139.625 -87.65625 "/></g></g></g><g fill="#f2f2f2" fill-opacity="1"><g transform="translate(483.473305, 150.733261)"><g><path d="M 58.6875 -14.296875 L 27.59375 -14.296875 L 20.390625 0 L -5.21875 0 L 42.140625 -87.65625 L 70.25 -87.65625 L 86.65625 0 L 60.921875 0 Z M 55.828125 -32.828125 L 51.46875 -61.296875 L 37.046875 -32.828125 Z M 55.828125 -32.828125 "/></g></g></g><g fill="#f2f2f2" fill-opacity="1"><g transform="translate(604.792297, 150.733261)"><g><path d="M 49.484375 -92.125 L 36.296875 -32.828125 L 15.421875 -32.828125 L 23 -92.125 Z M 19.890625 1 C 16.078125 1 13.070312 0.046875 10.875 -1.859375 C 8.675781 -3.765625 7.578125 -6.253906 7.578125 -9.328125 C 7.578125 -11.972656 8.300781 -14.4375 9.75 -16.71875 C 11.207031 -19 13.21875 -20.820312 15.78125 -22.1875 C 18.351562 -23.5625 21.21875 -24.25 24.375 -24.25 C 28.101562 -24.25 31.0625 -23.273438 33.25 -21.328125 C 35.445312 -19.378906 36.546875 -16.867188 36.546875 -13.796875 C 36.546875 -9.648438 34.953125 -6.144531 31.765625 -3.28125 C 28.578125 -0.425781 24.617188 1 19.890625 1 Z M 19.890625 1 "/></g></g></g><g fill="#f2f2f2" fill-opacity="1"><g transform="translate(684.848296, 150.733261)"><g/></g></g><g fill="#f2f2f2" fill-opacity="1"><g transform="translate(737.312776, 150.733261)"><g><path d="M 74.21875 -87.65625 L 64.03125 -29.59375 C 62.289062 -19.726562 58.289062 -12.179688 52.03125 -6.953125 C 45.769531 -1.734375 37.957031 0.875 28.59375 0.875 C 19.976562 0.875 13.179688 -1.238281 8.203125 -5.46875 C 3.234375 -9.695312 0.75 -15.832031 0.75 -23.875 C 0.75 -26.195312 0.992188 -28.722656 1.484375 -31.453125 L 25.734375 -31.453125 C 25.484375 -30.128906 25.359375 -28.882812 25.359375 -27.71875 C 25.359375 -23.332031 27.390625 -21.140625 31.453125 -21.140625 C 35.765625 -21.140625 38.5 -23.957031 39.65625 -29.59375 L 49.859375 -87.65625 Z M 74.21875 -87.65625 "/></g></g></g><g fill="#f2f2f2" fill-opacity="1"><g transform="translate(837.378877, 150.733261)"><g><path d="M 40.03125 -87.65625 L 31.203125 -36.796875 C 30.953125 -35.304688 30.828125 -33.898438 30.828125 -32.578125 C 30.828125 -29.253906 31.71875 -26.679688 33.5 -24.859375 C 35.28125 -23.035156 38.039062 -22.125 41.78125 -22.125 C 46.25 -22.125 49.847656 -23.410156 52.578125 -25.984375 C 55.316406 -28.554688 57.101562 -32.160156 57.9375 -36.796875 L 66.890625 -87.65625 L 91.25 -87.65625 L 82.3125 -36.796875 C 80.894531 -28.515625 78.03125 -21.550781 73.71875 -15.90625 C 69.414062 -10.269531 64.15625 -6.0625 57.9375 -3.28125 C 51.71875 -0.507812 44.921875 0.875 37.546875 0.875 C 28.015625 0.875 20.367188 -1.609375 14.609375 -6.578125 C 8.847656 -11.554688 5.96875 -18.6875 5.96875 -27.96875 C 5.96875 -30.957031 6.257812 -33.898438 6.84375 -36.796875 L 15.796875 -87.65625 Z M 40.03125 -87.65625 "/></g></g></g><g fill="#f2f2f2" fill-opacity="1"><g transform="translate(953.353607, 150.733261)"><g><path d="M 49.484375 -92.125 L 36.296875 -32.828125 L 15.421875 -32.828125 L 23 -92.125 Z M 19.890625 1 C 16.078125 1 13.070312 0.046875 10.875 -1.859375 C 8.675781 -3.765625 7.578125 -6.253906 7.578125 -9.328125 C 7.578125 -11.972656 8.300781 -14.4375 9.75 -16.71875 C 11.207031 -19 13.21875 -20.820312 15.78125 -22.1875 C 18.351562 -23.5625 21.21875 -24.25 24.375 -24.25 C 28.101562 -24.25 31.0625 -23.273438 33.25 -21.328125 C 35.445312 -19.378906 36.546875 -16.867188 36.546875 -13.796875 C 36.546875 -9.648438 34.953125 -6.144531 31.765625 -3.28125 C 28.578125 -0.425781 24.617188 1 19.890625 1 Z M 19.890625 1 "/></g></g></g></svg>