<svg xmlns="http://www.w3.org/2000/svg" xmlns:xlink="http://www.w3.org/1999/xlink" width="275" zoomAndPan="magnify" viewBox="0 0 206.25 98.249997" height="131" preserveAspectRatio="xMidYMid meet" version="1.0"><defs><filter x="0%" y="0%" width="100%" height="100%" id="ffcdaf9794"><feColorMatrix values="0 0 0 0 1 0 0 0 0 1 0 0 0 0 1 0 0 0 1 0" color-interpolation-filters="sRGB"/></filter><g/><clipPath id="2aa69fc072"><path d="M 13.984375 0 L 188.800781 0 L 188.800781 97.121094 L 13.984375 97.121094 Z M 13.984375 0 " clip-rule="nonzero"/></clipPath><clipPath id="9f88630013"><path d="M 14 19.492188 L 191 19.492188 L 191 77.761719 L 14 77.761719 Z M 14 19.492188 " clip-rule="nonzero"/></clipPath><mask id="ed1da335d6"><g filter="url(#ffcdaf9794)"><rect x="-20.625" width="247.5" fill="#000000" y="-9.825" height="117.899996" fill-opacity="0.9"/></g></mask><clipPath id="56d07210f7"><rect x="0" width="141" y="0" height="54"/></clipPath></defs><g clip-path="url(#2aa69fc072)"><path fill="#000000" d="M 181.515625 34.144531 C 184.898438 28.246094 185.8125 22.804688 184.074219 18.164062 C 183.023438 15.347656 181.023438 12.945312 178.167969 10.980469 L 184.882812 10.152344 C 184.949219 10.140625 184.980469 10.105469 184.980469 10.039062 C 184.980469 9.972656 184.949219 9.933594 184.882812 9.925781 L 177.773438 9.03125 C 177.296875 8.96875 176.886719 8.769531 176.546875 8.429688 C 176.207031 8.09375 176.007812 7.683594 175.949219 7.210938 L 175.058594 0.128906 C 175.058594 0.0546875 175.019531 0.015625 174.945312 0.015625 C 174.871094 0.015625 174.832031 0.0546875 174.832031 0.128906 L 173.941406 7.210938 C 173.882812 7.679688 173.683594 8.082031 173.351562 8.417969 C 168.359375 6.359375 161.855469 5.152344 154.054688 4.894531 C 137.925781 4.359375 117.675781 7.90625 97.039062 14.867188 L 96.460938 15.0625 L 95.867188 15.25 C 74.667969 15.726562 54.910156 18.921875 39.75 24.371094 C 23.136719 30.355469 13.984375 38.359375 13.984375 46.914062 C 13.984375 52.097656 17.363281 57.097656 23.722656 61.550781 C 19.542969 68.128906 18.371094 74.003906 20.246094 79.023438 C 21.265625 81.726562 23.136719 84.046875 25.777344 85.957031 C 25.59375 86.039062 25.40625 86.09375 25.207031 86.121094 L 18.101562 87.007812 C 18.027344 87.007812 17.988281 87.046875 17.988281 87.121094 C 17.988281 87.195312 18.027344 87.230469 18.101562 87.230469 L 25.207031 88.121094 C 25.683594 88.179688 26.09375 88.378906 26.433594 88.71875 C 26.773438 89.054688 26.972656 89.464844 27.03125 89.9375 L 27.921875 97.023438 C 27.933594 97.089844 27.96875 97.121094 28.035156 97.121094 C 28.101562 97.121094 28.140625 97.089844 28.148438 97.023438 L 29.039062 89.9375 C 29.128906 89.257812 29.46875 88.746094 30.0625 88.402344 C 35.660156 90.914062 43.316406 92.273438 52.726562 92.339844 L 53.488281 92.339844 C 70.984375 92.339844 92.394531 87.960938 113.902344 79.972656 C 115.625 79.332031 117.328125 78.675781 119.015625 78 C 135.578125 76.78125 150.804688 73.855469 163.039062 69.449219 C 179.652344 63.472656 188.804688 55.46875 188.804688 46.910156 C 188.804688 42.4375 186.289062 38.105469 181.515625 34.144531 Z M 172.289062 8.992188 C 172.230469 9.003906 172.171875 9.019531 172.113281 9.03125 L 165.007812 9.917969 C 164.941406 9.925781 164.910156 9.964844 164.910156 10.03125 C 164.910156 10.097656 164.941406 10.132812 165.007812 10.144531 L 172.113281 11.03125 C 172.59375 11.089844 173 11.289062 173.339844 11.628906 C 173.679688 11.96875 173.882812 12.375 173.941406 12.851562 L 174.832031 19.929688 C 174.832031 20.003906 174.871094 20.042969 174.945312 20.042969 C 175.019531 20.042969 175.058594 20.003906 175.058594 19.929688 L 175.949219 12.847656 C 176.035156 12.160156 176.382812 11.640625 176.988281 11.300781 C 180.015625 13.203125 182.152344 15.597656 183.230469 18.476562 C 184.863281 22.832031 184 27.972656 180.816406 33.570312 C 176.511719 30.183594 170.542969 27.070312 163.042969 24.375 C 146.566406 18.449219 124.675781 15.1875 101.394531 15.1875 C 100.5625 15.1875 99.730469 15.191406 98.898438 15.203125 C 129.324219 5.1875 157.203125 3.230469 172.289062 8.992188 Z M 113.585938 79.128906 C 79.769531 91.6875 47.796875 94.636719 31.5 88.042969 L 37.972656 87.234375 C 38.046875 87.234375 38.085938 87.195312 38.085938 87.121094 C 38.085938 87.046875 38.046875 87.011719 37.972656 87.007812 L 30.867188 86.121094 C 30.390625 86.0625 29.980469 85.863281 29.640625 85.523438 C 29.300781 85.183594 29.101562 84.777344 29.039062 84.300781 L 28.148438 77.21875 C 28.140625 77.15625 28.101562 77.121094 28.035156 77.121094 C 27.96875 77.121094 27.933594 77.15625 27.921875 77.21875 L 27.03125 84.300781 C 26.980469 84.71875 26.8125 85.085938 26.535156 85.402344 C 23.941406 83.574219 22.085938 81.351562 21.097656 78.707031 C 19.328125 73.976562 20.472656 68.375 24.472656 62.066406 C 28.488281 64.761719 33.605469 67.25 39.75 69.453125 C 56.222656 75.378906 78.113281 78.640625 101.394531 78.640625 C 106.347656 78.640625 111.238281 78.492188 116.027344 78.203125 C 115.21875 78.515625 114.402344 78.824219 113.585938 79.128906 Z M 118.742188 77.148438 C 113.125 77.5625 107.332031 77.769531 101.394531 77.769531 C 53.683594 77.769531 14.867188 63.925781 14.867188 46.914062 C 14.867188 29.90625 53.683594 16.066406 101.394531 16.066406 C 136.53125 16.066406 166.839844 23.574219 180.378906 34.324219 C 177.632812 38.882812 173.371094 43.746094 167.671875 48.738281 C 155.5625 59.347656 138.332031 69.328125 118.742188 77.148438 Z M 121.75 76.898438 C 140.332031 69.21875 156.648438 59.605469 168.28125 49.417969 C 173.996094 44.410156 178.289062 39.515625 181.085938 34.890625 C 185.488281 38.589844 187.929688 42.652344 187.929688 46.914062 C 187.917969 61.425781 159.667969 73.625 121.75 76.898438 Z M 121.75 76.898438 " fill-opacity="1" fill-rule="nonzero"/></g><g clip-path="url(#9f88630013)"><path fill="#111417" d="M 18.484375 62.882812 C 18.0625 62.371094 17.5 62.261719 17.042969 61.980469 C 15.121094 60.824219 14.738281 58.859375 16.101562 57.082031 C 16.566406 56.476562 17.0625 55.890625 17.542969 55.289062 C 18.152344 54.527344 18.121094 54.359375 17.328125 53.710938 C 16.863281 53.332031 16.394531 52.941406 15.960938 52.523438 C 14.054688 50.664062 14.636719 49.335938 15.71875 47.894531 C 16.179688 47.28125 16.648438 46.667969 17.1875 46.125 C 17.707031 45.59375 17.589844 45.214844 17.117188 44.746094 C 16.382812 44.015625 15.570312 43.351562 15.101562 42.371094 C 14.324219 40.730469 14.503906 39.84375 15.964844 38.671875 C 17.152344 37.722656 17.230469 37.386719 16.570312 36.015625 C 16.234375 35.324219 15.828125 34.660156 15.542969 33.949219 C 14.855469 32.238281 15.382812 31.261719 17.125 30.699219 C 18.605469 30.21875 20.164062 30.109375 21.660156 30.027344 C 23.90625 29.898438 26.144531 29.679688 28.382812 29.550781 C 45.132812 28.578125 61.882812 27.617188 78.625 26.496094 C 95.953125 25.335938 113.261719 23.949219 130.585938 22.734375 C 147.414062 21.554688 164.757812 19.5 181.632812 20.011719 C 183.070312 20.054688 184.476562 20.21875 185.882812 20.417969 C 187.828125 20.695312 188.390625 21.644531 187.851562 23.574219 C 187.628906 24.363281 187.296875 25.125 186.980469 25.882812 C 186.753906 26.433594 186.78125 26.871094 187.164062 27.390625 C 187.558594 27.921875 188.023438 28.390625 188.417969 28.914062 C 189.582031 30.460938 189.582031 31.324219 188.523438 32.949219 C 188.191406 33.460938 187.8125 33.921875 187.386719 34.351562 C 186.90625 34.835938 186.921875 35.3125 187.40625 35.785156 C 187.878906 36.246094 188.367188 36.691406 188.8125 37.175781 C 189.78125 38.246094 189.890625 39.039062 189.242188 40.328125 C 188.96875 40.863281 188.601562 41.351562 188.316406 41.882812 C 187.804688 42.855469 187.878906 43.140625 188.71875 43.832031 C 188.972656 44.039062 189.246094 44.234375 189.472656 44.472656 C 191.09375 46.15625 191.074219 47.492188 189.414062 49.15625 C 189.296875 49.273438 189.179688 49.386719 189.058594 49.503906 C 187.796875 50.753906 187.738281 50.792969 188.757812 52.203125 C 190.371094 54.425781 190.976562 56.1875 187.296875 58.523438 C 187.117188 58.632812 186.949219 58.769531 186.722656 58.925781 C 187.078125 59.71875 187.53125 60.398438 188.148438 60.9375 C 189.066406 61.742188 189.714844 62.769531 190.519531 63.671875 C 191.207031 64.4375 191.121094 65.480469 190.371094 66.171875 C 189.707031 66.78125 188.894531 67.148438 188 67.226562 C 134.574219 71.769531 80.378906 75.585938 26.636719 77.660156 C 24.988281 77.726562 23.34375 77.839844 21.691406 77.824219 C 21.253906 77.820312 20.8125 77.832031 20.375 77.8125 C 18.097656 77.707031 17.175781 75.933594 18.425781 74.015625 C 18.722656 73.558594 19.171875 73.207031 19.519531 72.785156 C 20.136719 72.042969 20.101562 71.703125 19.289062 71.222656 C 18.71875 70.882812 18.203125 70.480469 17.652344 70.125 C 15.355469 68.632812 15.628906 66.15625 17.035156 64.425781 C 17.476562 63.878906 17.996094 63.394531 18.484375 62.882812 Z M 18.484375 62.882812 " fill-opacity="1" fill-rule="nonzero"/></g><g mask="url(#ed1da335d6)"><g transform="matrix(1, 0, 0, 1, 34, 21)"><g clip-path="url(#56d07210f7)"><g fill="#d4e2ed" fill-opacity="1"><g transform="translate(1.016527, 40.312422)"><g><path d="M 17.46875 0 L 9.3125 -11.40625 L 9.3125 0 L 2.0625 0 L 2.0625 -26.046875 L 9.3125 -26.046875 L 9.3125 -14.8125 L 17.390625 -26.046875 L 25.75 -26.046875 L 16.171875 -13.40625 L 26.21875 0 Z M 17.46875 0 "/></g></g></g><g fill="#d4e2ed" fill-opacity="1"><g transform="translate(31.637005, 40.312422)"><g><path d="M 9.3125 -20.234375 L 9.3125 -16 L 17.625 -16 L 17.625 -10.484375 L 9.3125 -10.484375 L 9.3125 -5.796875 L 18.734375 -5.796875 L 18.734375 0 L 2.0625 0 L 2.0625 -26.046875 L 18.734375 -26.046875 L 18.734375 -20.234375 Z M 9.3125 -20.234375 "/></g></g></g><g fill="#d4e2ed" fill-opacity="1"><g transform="translate(55.683037, 40.312422)"><g><path d="M 15.25 0 L 10.078125 -9.609375 L 9.3125 -9.609375 L 9.3125 0 L 2.0625 0 L 2.0625 -26.046875 L 13.484375 -26.046875 C 15.578125 -26.046875 17.347656 -25.679688 18.796875 -24.953125 C 20.253906 -24.222656 21.351562 -23.222656 22.09375 -21.953125 C 22.832031 -20.691406 23.203125 -19.269531 23.203125 -17.6875 C 23.203125 -15.914062 22.710938 -14.359375 21.734375 -13.015625 C 20.765625 -11.671875 19.34375 -10.71875 17.46875 -10.15625 L 23.34375 0 Z M 9.3125 -14.546875 L 12.890625 -14.546875 C 13.878906 -14.546875 14.617188 -14.78125 15.109375 -15.25 C 15.597656 -15.71875 15.84375 -16.394531 15.84375 -17.28125 C 15.84375 -18.125 15.585938 -18.785156 15.078125 -19.265625 C 14.578125 -19.742188 13.847656 -19.984375 12.890625 -19.984375 L 9.3125 -19.984375 Z M 9.3125 -14.546875 "/></g></g></g><g fill="#d4e2ed" fill-opacity="1"><g transform="translate(83.902744, 40.312422)"><g><path d="M 9.3125 -20.234375 L 9.3125 -16 L 17.625 -16 L 17.625 -10.484375 L 9.3125 -10.484375 L 9.3125 -5.796875 L 18.734375 -5.796875 L 18.734375 0 L 2.0625 0 L 2.0625 -26.046875 L 18.734375 -26.046875 L 18.734375 -20.234375 Z M 9.3125 -20.234375 "/></g></g></g><g fill="#d4e2ed" fill-opacity="1"><g transform="translate(107.948774, 40.312422)"><g><path d="M 26.1875 0 L 18.953125 0 L 9.3125 -14.546875 L 9.3125 0 L 2.0625 0 L 2.0625 -26.046875 L 9.3125 -26.046875 L 18.953125 -11.296875 L 18.953125 -26.046875 L 26.1875 -26.046875 Z M 26.1875 0 "/></g></g></g></g></g></g></svg>