<svg xmlns="http://www.w3.org/2000/svg" xmlns:xlink="http://www.w3.org/1999/xlink" width="150" zoomAndPan="magnify" viewBox="0 0 112.5 149.999998" height="200" preserveAspectRatio="xMidYMid meet" version="1.0"><defs><g/><clipPath id="ae2de7c963"><path d="M 0 0.332031 L 112.003906 0.332031 L 112.003906 149.667969 L 0 149.667969 Z M 0 0.332031 " clip-rule="nonzero"/></clipPath><clipPath id="e45d8b00fb"><path d="M 44.128906 44.460938 L 68 44.460938 L 68 68.351562 L 44.128906 68.351562 Z M 44.128906 44.460938 " clip-rule="nonzero"/></clipPath></defs><g clip-path="url(#ae2de7c963)"><path fill="#ffffff" d="M 0 0.332031 L 112.003906 0.332031 L 112.003906 149.667969 L 0 149.667969 Z M 0 0.332031 " fill-opacity="1" fill-rule="nonzero"/><path fill="#8b9796" d="M 0 0.332031 L 112.003906 0.332031 L 112.003906 149.523438 L 0 149.523438 Z M 0 0.332031 " fill-opacity="1" fill-rule="nonzero"/></g><g clip-path="url(#e45d8b00fb)"><path fill="#f2f2f2" d="M 64.289062 56.777344 L 62.085938 55.5 C 61.949219 55.015625 61.8125 54.457031 61.691406 53.859375 C 61.460938 52.707031 61.277344 51.253906 61.429688 49.945312 C 61.542969 50.007812 61.65625 50.070312 61.769531 50.132812 C 62.125 50.332031 62.480469 50.527344 62.839844 50.726562 L 63.882812 51.304688 L 64.777344 51.796875 C 64.988281 51.914062 65.199219 52.03125 65.40625 52.144531 C 65.484375 52.1875 65.566406 52.234375 65.644531 52.277344 Z M 61.96875 62.925781 L 50.03125 62.925781 L 50.03125 55.867188 C 50.195312 55.3125 50.371094 54.632812 50.515625 53.898438 C 50.734375 52.800781 50.84375 51.792969 50.839844 50.90625 C 50.839844 50.527344 50.816406 50.167969 50.773438 49.835938 C 50.832031 49.800781 50.890625 49.769531 50.949219 49.738281 C 51.234375 49.578125 51.519531 49.421875 51.808594 49.261719 C 51.910156 49.207031 52.015625 49.148438 52.117188 49.089844 C 52.15625 49.070312 52.195312 49.046875 52.234375 49.027344 C 52.332031 48.972656 52.441406 48.863281 52.558594 48.867188 C 52.664062 48.875 52.800781 48.933594 53.042969 49.039062 C 54.042969 49.472656 56.375 50.492188 59.363281 48.890625 C 59.4375 48.847656 59.511719 48.871094 59.574219 48.917969 C 59.578125 48.917969 59.582031 48.921875 59.585938 48.925781 C 59.652344 48.96875 59.71875 49 59.785156 49.039062 C 59.871094 49.085938 59.957031 49.132812 60.042969 49.179688 C 60.292969 49.320312 60.546875 49.457031 60.796875 49.597656 C 60.945312 49.679688 61.09375 49.761719 61.242188 49.84375 C 61.199219 50.175781 61.175781 50.53125 61.175781 50.90625 C 61.171875 51.792969 61.28125 52.800781 61.5 53.898438 C 61.640625 54.605469 61.8125 55.261719 61.96875 55.804688 Z M 61.96875 63.792969 L 50.03125 63.792969 L 50.03125 63.125 L 61.96875 63.125 Z M 47.710938 56.777344 L 46.355469 52.277344 L 46.414062 52.242188 C 46.574219 52.15625 46.730469 52.070312 46.886719 51.980469 C 47.164062 51.828125 47.441406 51.675781 47.71875 51.523438 C 48.066406 51.332031 48.414062 51.136719 48.765625 50.945312 C 49.136719 50.738281 49.511719 50.53125 49.886719 50.324219 C 50.121094 50.195312 50.355469 50.066406 50.585938 49.9375 C 50.738281 51.246094 50.554688 52.703125 50.324219 53.859375 C 50.207031 54.453125 50.070312 55.007812 49.9375 55.488281 Z M 56 44.457031 C 49.445312 44.457031 44.128906 49.773438 44.128906 56.328125 C 44.128906 62.886719 49.445312 68.199219 56 68.199219 C 62.554688 68.199219 67.871094 62.886719 67.871094 56.328125 C 67.871094 49.773438 62.554688 44.457031 56 44.457031 " fill-opacity="1" fill-rule="nonzero"/></g><path fill="#f2f2f2" d="M 55.414062 50.085938 C 54.269531 49.96875 53.414062 49.597656 52.898438 49.371094 C 52.871094 49.359375 52.84375 49.347656 52.8125 49.335938 C 53.488281 50.378906 54.664062 51.070312 56 51.070312 C 57.304688 51.070312 58.453125 50.414062 59.136719 49.410156 C 58.136719 49.882812 57.113281 50.121094 56.085938 50.121094 C 55.863281 50.121094 55.636719 50.109375 55.414062 50.085938 " fill-opacity="1" fill-rule="nonzero"/><g fill="#f2f2f2" fill-opacity="1"><g transform="translate(27.661747, 81.725028)"><g><path d="M 4.71875 -4.28125 C 4.71875 -3.78125 4.546875 -3.363281 4.203125 -3.03125 C 3.859375 -2.695312 3.332031 -2.53125 2.625 -2.53125 L 1.453125 -2.53125 L 1.453125 0 L 0.671875 0 L 0.671875 -6.0625 L 2.625 -6.0625 C 3.3125 -6.0625 3.832031 -5.894531 4.1875 -5.5625 C 4.539062 -5.226562 4.71875 -4.800781 4.71875 -4.28125 Z M 2.625 -3.171875 C 3.0625 -3.171875 3.382812 -3.265625 3.59375 -3.453125 C 3.800781 -3.648438 3.90625 -3.925781 3.90625 -4.28125 C 3.90625 -5.03125 3.476562 -5.40625 2.625 -5.40625 L 1.453125 -5.40625 L 1.453125 -3.171875 Z M 2.625 -3.171875 "/></g></g></g><g fill="#f2f2f2" fill-opacity="1"><g transform="translate(32.920371, 81.725028)"><g><path d="M 1.453125 -3.984375 C 1.597656 -4.253906 1.796875 -4.460938 2.046875 -4.609375 C 2.304688 -4.765625 2.625 -4.84375 3 -4.84375 L 3 -4.03125 L 2.78125 -4.03125 C 1.894531 -4.03125 1.453125 -3.550781 1.453125 -2.59375 L 1.453125 0 L 0.671875 0 L 0.671875 -4.765625 L 1.453125 -4.765625 Z M 1.453125 -3.984375 "/></g></g></g><g fill="#f2f2f2" fill-opacity="1"><g transform="translate(36.388454, 81.725028)"><g><path d="M 5.015625 -2.5625 C 5.015625 -2.414062 5.003906 -2.253906 4.984375 -2.078125 L 1.1875 -2.078125 C 1.207031 -1.609375 1.363281 -1.242188 1.65625 -0.984375 C 1.957031 -0.722656 2.316406 -0.59375 2.734375 -0.59375 C 3.066406 -0.59375 3.347656 -0.671875 3.578125 -0.828125 C 3.804688 -0.984375 3.96875 -1.195312 4.0625 -1.46875 L 4.921875 -1.46875 C 4.785156 -1.007812 4.523438 -0.632812 4.140625 -0.34375 C 3.765625 -0.0625 3.296875 0.078125 2.734375 0.078125 C 2.273438 0.078125 1.867188 -0.0195312 1.515625 -0.21875 C 1.160156 -0.425781 0.878906 -0.71875 0.671875 -1.09375 C 0.472656 -1.46875 0.375 -1.898438 0.375 -2.390625 C 0.375 -2.878906 0.472656 -3.304688 0.671875 -3.671875 C 0.867188 -4.046875 1.144531 -4.332031 1.5 -4.53125 C 1.851562 -4.738281 2.265625 -4.84375 2.734375 -4.84375 C 3.179688 -4.84375 3.578125 -4.742188 3.921875 -4.546875 C 4.273438 -4.347656 4.546875 -4.078125 4.734375 -3.734375 C 4.921875 -3.390625 5.015625 -3 5.015625 -2.5625 Z M 4.203125 -2.734375 C 4.203125 -3.023438 4.132812 -3.28125 4 -3.5 C 3.863281 -3.71875 3.679688 -3.882812 3.453125 -4 C 3.222656 -4.113281 2.96875 -4.171875 2.6875 -4.171875 C 2.289062 -4.171875 1.953125 -4.039062 1.671875 -3.78125 C 1.390625 -3.53125 1.226562 -3.179688 1.1875 -2.734375 Z M 4.203125 -2.734375 "/></g></g></g><g fill="#f2f2f2" fill-opacity="1"><g transform="translate(42.003448, 81.725028)"><g><path d="M 2.4375 -0.734375 L 3.921875 -4.765625 L 4.765625 -4.765625 L 2.890625 0 L 1.96875 0 L 0.109375 -4.765625 L 0.953125 -4.765625 Z M 2.4375 -0.734375 "/></g></g></g><g fill="#f2f2f2" fill-opacity="1"><g transform="translate(47.105615, 81.725028)"><g><path d="M 1.078125 -5.53125 C 0.921875 -5.53125 0.789062 -5.582031 0.6875 -5.6875 C 0.582031 -5.789062 0.53125 -5.921875 0.53125 -6.078125 C 0.53125 -6.222656 0.582031 -6.347656 0.6875 -6.453125 C 0.789062 -6.554688 0.921875 -6.609375 1.078125 -6.609375 C 1.222656 -6.609375 1.34375 -6.554688 1.4375 -6.453125 C 1.539062 -6.347656 1.59375 -6.222656 1.59375 -6.078125 C 1.59375 -5.921875 1.539062 -5.789062 1.4375 -5.6875 C 1.34375 -5.582031 1.222656 -5.53125 1.078125 -5.53125 Z M 1.453125 -4.765625 L 1.453125 0 L 0.671875 0 L 0.671875 -4.765625 Z M 1.453125 -4.765625 "/></g></g></g><g fill="#f2f2f2" fill-opacity="1"><g transform="translate(49.469828, 81.725028)"><g><path d="M 5.015625 -2.5625 C 5.015625 -2.414062 5.003906 -2.253906 4.984375 -2.078125 L 1.1875 -2.078125 C 1.207031 -1.609375 1.363281 -1.242188 1.65625 -0.984375 C 1.957031 -0.722656 2.316406 -0.59375 2.734375 -0.59375 C 3.066406 -0.59375 3.347656 -0.671875 3.578125 -0.828125 C 3.804688 -0.984375 3.96875 -1.195312 4.0625 -1.46875 L 4.921875 -1.46875 C 4.785156 -1.007812 4.523438 -0.632812 4.140625 -0.34375 C 3.765625 -0.0625 3.296875 0.078125 2.734375 0.078125 C 2.273438 0.078125 1.867188 -0.0195312 1.515625 -0.21875 C 1.160156 -0.425781 0.878906 -0.71875 0.671875 -1.09375 C 0.472656 -1.46875 0.375 -1.898438 0.375 -2.390625 C 0.375 -2.878906 0.472656 -3.304688 0.671875 -3.671875 C 0.867188 -4.046875 1.144531 -4.332031 1.5 -4.53125 C 1.851562 -4.738281 2.265625 -4.84375 2.734375 -4.84375 C 3.179688 -4.84375 3.578125 -4.742188 3.921875 -4.546875 C 4.273438 -4.347656 4.546875 -4.078125 4.734375 -3.734375 C 4.921875 -3.390625 5.015625 -3 5.015625 -2.5625 Z M 4.203125 -2.734375 C 4.203125 -3.023438 4.132812 -3.28125 4 -3.5 C 3.863281 -3.71875 3.679688 -3.882812 3.453125 -4 C 3.222656 -4.113281 2.96875 -4.171875 2.6875 -4.171875 C 2.289062 -4.171875 1.953125 -4.039062 1.671875 -3.78125 C 1.390625 -3.53125 1.226562 -3.179688 1.1875 -2.734375 Z M 4.203125 -2.734375 "/></g></g></g><g fill="#f2f2f2" fill-opacity="1"><g transform="translate(55.084821, 81.725028)"><g><path d="M 7.015625 -4.765625 L 5.53125 0 L 4.703125 0 L 3.5625 -3.78125 L 2.421875 0 L 1.59375 0 L 0.109375 -4.765625 L 0.90625 -4.765625 L 2 -0.765625 L 3.1875 -4.765625 L 4 -4.765625 L 5.15625 -0.75 L 6.234375 -4.765625 Z M 7.015625 -4.765625 "/></g></g></g><g fill="#f2f2f2" fill-opacity="1"><g transform="translate(62.43821, 81.725028)"><g/></g></g><g fill="#f2f2f2" fill-opacity="1"><g transform="translate(64.984952, 81.725028)"><g><path d="M 4.09375 -6.0625 L 4.09375 -5.40625 L 1.453125 -5.40625 L 1.453125 -3.375 L 3.59375 -3.375 L 3.59375 -2.734375 L 1.453125 -2.734375 L 1.453125 0 L 0.671875 0 L 0.671875 -6.0625 Z M 4.09375 -6.0625 "/></g></g></g><g fill="#f2f2f2" fill-opacity="1"><g transform="translate(69.591689, 81.725028)"><g><path d="M 2.75 0.078125 C 2.300781 0.078125 1.894531 -0.0195312 1.53125 -0.21875 C 1.164062 -0.425781 0.878906 -0.71875 0.671875 -1.09375 C 0.472656 -1.46875 0.375 -1.898438 0.375 -2.390625 C 0.375 -2.878906 0.476562 -3.304688 0.6875 -3.671875 C 0.894531 -4.046875 1.179688 -4.332031 1.546875 -4.53125 C 1.921875 -4.738281 2.332031 -4.84375 2.78125 -4.84375 C 3.226562 -4.84375 3.632812 -4.738281 4 -4.53125 C 4.363281 -4.332031 4.648438 -4.046875 4.859375 -3.671875 C 5.078125 -3.304688 5.1875 -2.878906 5.1875 -2.390625 C 5.1875 -1.898438 5.078125 -1.46875 4.859375 -1.09375 C 4.640625 -0.71875 4.34375 -0.425781 3.96875 -0.21875 C 3.601562 -0.0195312 3.195312 0.078125 2.75 0.078125 Z M 2.75 -0.609375 C 3.03125 -0.609375 3.296875 -0.675781 3.546875 -0.8125 C 3.796875 -0.945312 3.992188 -1.144531 4.140625 -1.40625 C 4.296875 -1.675781 4.375 -2.003906 4.375 -2.390625 C 4.375 -2.773438 4.296875 -3.097656 4.140625 -3.359375 C 3.992188 -3.628906 3.800781 -3.828125 3.5625 -3.953125 C 3.320312 -4.085938 3.054688 -4.15625 2.765625 -4.15625 C 2.484375 -4.15625 2.21875 -4.085938 1.96875 -3.953125 C 1.726562 -3.828125 1.535156 -3.628906 1.390625 -3.359375 C 1.253906 -3.097656 1.1875 -2.773438 1.1875 -2.390625 C 1.1875 -2.003906 1.253906 -1.675781 1.390625 -1.40625 C 1.535156 -1.132812 1.722656 -0.929688 1.953125 -0.796875 C 2.191406 -0.671875 2.457031 -0.609375 2.75 -0.609375 Z M 2.75 -0.609375 "/></g></g></g><g fill="#f2f2f2" fill-opacity="1"><g transform="translate(75.380522, 81.725028)"><g><path d="M 1.640625 -4.109375 L 1.640625 -1.296875 C 1.640625 -1.066406 1.6875 -0.90625 1.78125 -0.8125 C 1.875 -0.71875 2.046875 -0.671875 2.296875 -0.671875 L 2.875 -0.671875 L 2.875 0 L 2.15625 0 C 1.71875 0 1.390625 -0.0976562 1.171875 -0.296875 C 0.953125 -0.503906 0.84375 -0.835938 0.84375 -1.296875 L 0.84375 -4.109375 L 0.21875 -4.109375 L 0.21875 -4.765625 L 0.84375 -4.765625 L 0.84375 -5.953125 L 1.640625 -5.953125 L 1.640625 -4.765625 L 2.875 -4.765625 L 2.875 -4.109375 Z M 1.640625 -4.109375 "/></g></g></g><g fill="#f2f2f2" fill-opacity="1"><g transform="translate(78.770375, 81.725028)"><g><path d="M 2.75 0.078125 C 2.300781 0.078125 1.894531 -0.0195312 1.53125 -0.21875 C 1.164062 -0.425781 0.878906 -0.71875 0.671875 -1.09375 C 0.472656 -1.46875 0.375 -1.898438 0.375 -2.390625 C 0.375 -2.878906 0.476562 -3.304688 0.6875 -3.671875 C 0.894531 -4.046875 1.179688 -4.332031 1.546875 -4.53125 C 1.921875 -4.738281 2.332031 -4.84375 2.78125 -4.84375 C 3.226562 -4.84375 3.632812 -4.738281 4 -4.53125 C 4.363281 -4.332031 4.648438 -4.046875 4.859375 -3.671875 C 5.078125 -3.304688 5.1875 -2.878906 5.1875 -2.390625 C 5.1875 -1.898438 5.078125 -1.46875 4.859375 -1.09375 C 4.640625 -0.71875 4.34375 -0.425781 3.96875 -0.21875 C 3.601562 -0.0195312 3.195312 0.078125 2.75 0.078125 Z M 2.75 -0.609375 C 3.03125 -0.609375 3.296875 -0.675781 3.546875 -0.8125 C 3.796875 -0.945312 3.992188 -1.144531 4.140625 -1.40625 C 4.296875 -1.675781 4.375 -2.003906 4.375 -2.390625 C 4.375 -2.773438 4.296875 -3.097656 4.140625 -3.359375 C 3.992188 -3.628906 3.800781 -3.828125 3.5625 -3.953125 C 3.320312 -4.085938 3.054688 -4.15625 2.765625 -4.15625 C 2.484375 -4.15625 2.21875 -4.085938 1.96875 -3.953125 C 1.726562 -3.828125 1.535156 -3.628906 1.390625 -3.359375 C 1.253906 -3.097656 1.1875 -2.773438 1.1875 -2.390625 C 1.1875 -2.003906 1.253906 -1.675781 1.390625 -1.40625 C 1.535156 -1.132812 1.722656 -0.929688 1.953125 -0.796875 C 2.191406 -0.671875 2.457031 -0.609375 2.75 -0.609375 Z M 2.75 -0.609375 "/></g></g></g><g fill="#f2f2f2" fill-opacity="1"><g transform="translate(45.577447, 93.314212)"><g><path d="M 0.4375 -4.546875 C 0.46875 -5.171875 0.671875 -5.648438 1.046875 -5.984375 C 1.429688 -6.316406 1.953125 -6.484375 2.609375 -6.484375 C 3.035156 -6.484375 3.40625 -6.40625 3.71875 -6.25 C 4.03125 -6.101562 4.265625 -5.898438 4.421875 -5.640625 C 4.585938 -5.378906 4.671875 -5.085938 4.671875 -4.765625 C 4.671875 -4.390625 4.570312 -4.078125 4.375 -3.828125 C 4.1875 -3.585938 3.960938 -3.425781 3.703125 -3.34375 L 3.703125 -3.3125 C 4.035156 -3.195312 4.296875 -3.007812 4.484375 -2.75 C 4.679688 -2.5 4.78125 -2.175781 4.78125 -1.78125 C 4.78125 -1.425781 4.695312 -1.109375 4.53125 -0.828125 C 4.363281 -0.554688 4.125 -0.34375 3.8125 -0.1875 C 3.5 -0.03125 3.125 0.046875 2.6875 0.046875 C 1.988281 0.046875 1.429688 -0.117188 1.015625 -0.453125 C 0.609375 -0.796875 0.390625 -1.3125 0.359375 -2 L 1.8125 -2 C 1.8125 -1.75 1.878906 -1.550781 2.015625 -1.40625 C 2.160156 -1.257812 2.363281 -1.1875 2.625 -1.1875 C 2.851562 -1.1875 3.03125 -1.25 3.15625 -1.375 C 3.28125 -1.507812 3.34375 -1.679688 3.34375 -1.890625 C 3.34375 -2.171875 3.253906 -2.375 3.078125 -2.5 C 2.898438 -2.625 2.617188 -2.6875 2.234375 -2.6875 L 1.953125 -2.6875 L 1.953125 -3.890625 L 2.234375 -3.890625 C 2.523438 -3.890625 2.757812 -3.941406 2.9375 -4.046875 C 3.125 -4.148438 3.21875 -4.332031 3.21875 -4.59375 C 3.21875 -4.800781 3.160156 -4.960938 3.046875 -5.078125 C 2.929688 -5.191406 2.773438 -5.25 2.578125 -5.25 C 2.347656 -5.25 2.179688 -5.179688 2.078125 -5.046875 C 1.972656 -4.910156 1.910156 -4.742188 1.890625 -4.546875 Z M 0.4375 -4.546875 "/></g></g></g><g fill="#f2f2f2" fill-opacity="1"><g transform="translate(51.062068, 93.314212)"><g/></g></g><g fill="#f2f2f2" fill-opacity="1"><g transform="translate(53.130753, 93.314212)"><g><path d="M 3.40625 0 L 2.46875 -1.34375 L 1.6875 0 L 0.09375 0 L 1.6875 -2.46875 L 0.046875 -4.84375 L 1.71875 -4.84375 L 2.640625 -3.515625 L 3.421875 -4.84375 L 5.03125 -4.84375 L 3.40625 -2.40625 L 5.078125 0 Z M 3.40625 0 "/></g></g></g><g fill="#f2f2f2" fill-opacity="1"><g transform="translate(58.467604, 93.314212)"><g/></g></g><g fill="#f2f2f2" fill-opacity="1"><g transform="translate(60.53629, 93.314212)"><g><path d="M 0.421875 -1.125 L 0.421875 -2.328125 L 3.171875 -6.25 L 4.828125 -6.25 L 4.828125 -2.421875 L 5.546875 -2.421875 L 5.546875 -1.125 L 4.828125 -1.125 L 4.828125 0 L 3.34375 0 L 3.34375 -1.125 Z M 3.453125 -4.625 L 1.984375 -2.421875 L 3.453125 -2.421875 Z M 3.453125 -4.625 "/></g></g></g></svg>