<svg xmlns="http://www.w3.org/2000/svg" xmlns:xlink="http://www.w3.org/1999/xlink" width="1366" zoomAndPan="magnify" viewBox="0 0 1024.5 582" height="776" preserveAspectRatio="xMidYMid meet" version="1.0"><defs><filter x="0%" y="0%" width="100%" height="100%" id="a940bf5ec8"><feColorMatrix values="0 0 0 0 1 0 0 0 0 1 0 0 0 0 1 0 0 0 1 0" color-interpolation-filters="sRGB"/></filter><clipPath id="917358d6d9"><path d="M 0 0.140625 L 1024 0.140625 L 1024 581.855469 L 0 581.855469 Z M 0 0.140625 " clip-rule="nonzero"/></clipPath><clipPath id="3fa4e1be69"><path d="M 0 0.867188 L 1023.988281 0.867188 L 1023.988281 581.402344 L 0 581.402344 Z M 0 0.867188 " clip-rule="nonzero"/></clipPath><radialGradient gradientTransform="matrix(1, 0, 0, 1, -0.011488, 0.868607)" gradientUnits="userSpaceOnUse" r="588.557196" cx="511.99929" id="e34f800bfd" cy="290.267028" fx="511.99929" fy="290.267028"><stop stop-opacity="1" stop-color="rgb(70.556641%, 83.898926%, 72.366333%)" offset="0"/><stop stop-opacity="1" stop-color="rgb(70.480347%, 83.898926%, 72.660828%)" offset="0.015625"/><stop stop-opacity="1" stop-color="rgb(70.41626%, 83.898926%, 72.912598%)" offset="0.0273438"/><stop stop-opacity="1" stop-color="rgb(70.352173%, 83.898926%, 73.164368%)" offset="0.0390625"/><stop stop-opacity="1" stop-color="rgb(70.288086%, 83.898926%, 73.416138%)" offset="0.0507812"/><stop stop-opacity="1" stop-color="rgb(70.222473%, 83.898926%, 73.667908%)" offset="0.0625"/><stop stop-opacity="1" stop-color="rgb(70.158386%, 83.898926%, 73.919678%)" offset="0.0742188"/><stop stop-opacity="1" stop-color="rgb(70.094299%, 83.898926%, 74.171448%)" offset="0.0859375"/><stop stop-opacity="1" stop-color="rgb(70.030212%, 83.898926%, 74.424744%)" offset="0.0976562"/><stop stop-opacity="1" stop-color="rgb(69.9646%, 83.898926%, 74.676514%)" offset="0.109375"/><stop stop-opacity="1" stop-color="rgb(69.900513%, 83.898926%, 74.928284%)" offset="0.121094"/><stop stop-opacity="1" stop-color="rgb(69.836426%, 83.898926%, 75.180054%)" offset="0.132812"/><stop stop-opacity="1" stop-color="rgb(69.772339%, 83.898926%, 75.431824%)" offset="0.144531"/><stop stop-opacity="1" stop-color="rgb(69.706726%, 83.898926%, 75.683594%)" offset="0.15625"/><stop stop-opacity="1" stop-color="rgb(69.642639%, 83.898926%, 75.935364%)" offset="0.167969"/><stop stop-opacity="1" stop-color="rgb(69.578552%, 83.898926%, 76.187134%)" offset="0.179688"/><stop stop-opacity="1" stop-color="rgb(69.514465%, 83.898926%, 76.44043%)" offset="0.191406"/><stop stop-opacity="1" stop-color="rgb(69.450378%, 83.898926%, 76.6922%)" offset="0.203125"/><stop stop-opacity="1" stop-color="rgb(69.384766%, 83.898926%, 76.94397%)" offset="0.214844"/><stop stop-opacity="1" stop-color="rgb(69.320679%, 83.898926%, 77.19574%)" offset="0.226562"/><stop stop-opacity="1" stop-color="rgb(69.256592%, 83.898926%, 77.44751%)" offset="0.238281"/><stop stop-opacity="1" stop-color="rgb(69.192505%, 83.898926%, 77.69928%)" offset="0.25"/><stop stop-opacity="1" stop-color="rgb(69.137573%, 83.898926%, 77.909851%)" offset="0.261719"/><stop stop-opacity="1" stop-color="rgb(69.094849%, 83.898926%, 78.077698%)" offset="0.269531"/><stop stop-opacity="1" stop-color="rgb(69.052124%, 83.898926%, 78.245544%)" offset="0.277344"/><stop stop-opacity="1" stop-color="rgb(69.009399%, 83.898926%, 78.413391%)" offset="0.285156"/><stop stop-opacity="1" stop-color="rgb(68.966675%, 83.898926%, 78.581238%)" offset="0.292969"/><stop stop-opacity="1" stop-color="rgb(68.92395%, 83.898926%, 78.75061%)" offset="0.300781"/><stop stop-opacity="1" stop-color="rgb(68.8797%, 83.898926%, 78.918457%)" offset="0.308594"/><stop stop-opacity="1" stop-color="rgb(68.836975%, 83.898926%, 79.086304%)" offset="0.316406"/><stop stop-opacity="1" stop-color="rgb(68.79425%, 83.898926%, 79.25415%)" offset="0.324219"/><stop stop-opacity="1" stop-color="rgb(68.751526%, 83.898926%, 79.421997%)" offset="0.332031"/><stop stop-opacity="1" stop-color="rgb(68.708801%, 83.898926%, 79.589844%)" offset="0.339844"/><stop stop-opacity="1" stop-color="rgb(68.666077%, 83.898926%, 79.75769%)" offset="0.347656"/><stop stop-opacity="1" stop-color="rgb(68.621826%, 83.898926%, 79.925537%)" offset="0.355469"/><stop stop-opacity="1" stop-color="rgb(68.579102%, 83.898926%, 80.093384%)" offset="0.363281"/><stop stop-opacity="1" stop-color="rgb(68.536377%, 83.898926%, 80.26123%)" offset="0.371094"/><stop stop-opacity="1" stop-color="rgb(68.47229%, 83.898926%, 80.513%)" offset="0.378906"/><stop stop-opacity="1" stop-color="rgb(68.386841%, 83.898926%, 80.85022%)" offset="0.394531"/><stop stop-opacity="1" stop-color="rgb(68.299866%, 83.898926%, 81.185913%)" offset="0.410156"/><stop stop-opacity="1" stop-color="rgb(68.214417%, 83.898926%, 81.521606%)" offset="0.425781"/><stop stop-opacity="1" stop-color="rgb(68.128967%, 83.898926%, 81.8573%)" offset="0.441406"/><stop stop-opacity="1" stop-color="rgb(68.041992%, 83.898926%, 82.192993%)" offset="0.457031"/><stop stop-opacity="1" stop-color="rgb(67.956543%, 83.898926%, 82.528687%)" offset="0.472656"/><stop stop-opacity="1" stop-color="rgb(67.871094%, 83.898926%, 82.86438%)" offset="0.488281"/><stop stop-opacity="1" stop-color="rgb(67.7948%, 83.898926%, 83.158875%)" offset="0.503906"/><stop stop-opacity="1" stop-color="rgb(67.730713%, 83.898926%, 83.410645%)" offset="0.515625"/><stop stop-opacity="1" stop-color="rgb(67.666626%, 83.898926%, 83.662415%)" offset="0.527344"/><stop stop-opacity="1" stop-color="rgb(67.602539%, 83.898926%, 83.914185%)" offset="0.539062"/><stop stop-opacity="1" stop-color="rgb(67.536926%, 83.898926%, 84.165955%)" offset="0.550781"/><stop stop-opacity="1" stop-color="rgb(67.472839%, 83.898926%, 84.417725%)" offset="0.5625"/><stop stop-opacity="1" stop-color="rgb(67.408752%, 83.898926%, 84.669495%)" offset="0.574219"/><stop stop-opacity="1" stop-color="rgb(67.344666%, 83.898926%, 84.922791%)" offset="0.585938"/><stop stop-opacity="1" stop-color="rgb(67.279053%, 83.898926%, 85.174561%)" offset="0.597656"/><stop stop-opacity="1" stop-color="rgb(67.214966%, 83.898926%, 85.426331%)" offset="0.609375"/><stop stop-opacity="1" stop-color="rgb(67.150879%, 83.898926%, 85.678101%)" offset="0.621094"/><stop stop-opacity="1" stop-color="rgb(67.097473%, 83.898926%, 85.888672%)" offset="0.632812"/><stop stop-opacity="1" stop-color="rgb(67.054749%, 83.898926%, 86.056519%)" offset="0.640625"/><stop stop-opacity="1" stop-color="rgb(67.010498%, 83.898926%, 86.224365%)" offset="0.648438"/><stop stop-opacity="1" stop-color="rgb(66.967773%, 83.898926%, 86.392212%)" offset="0.65625"/><stop stop-opacity="1" stop-color="rgb(66.925049%, 83.898926%, 86.560059%)" offset="0.664062"/><stop stop-opacity="1" stop-color="rgb(66.882324%, 83.898926%, 86.727905%)" offset="0.671875"/><stop stop-opacity="1" stop-color="rgb(66.8396%, 83.898926%, 86.895752%)" offset="0.679688"/><stop stop-opacity="1" stop-color="rgb(66.796875%, 83.898926%, 87.065125%)" offset="0.6875"/><stop stop-opacity="1" stop-color="rgb(66.731262%, 83.898926%, 87.316895%)" offset="0.695312"/><stop stop-opacity="1" stop-color="rgb(66.645813%, 83.898926%, 87.652588%)" offset="0.710938"/><stop stop-opacity="1" stop-color="rgb(66.560364%, 83.898926%, 87.988281%)" offset="0.726562"/><stop stop-opacity="1" stop-color="rgb(66.473389%, 83.898926%, 88.323975%)" offset="0.742188"/><stop stop-opacity="1" stop-color="rgb(66.398621%, 83.898926%, 88.616943%)" offset="0.757812"/><stop stop-opacity="1" stop-color="rgb(66.334534%, 83.898926%, 88.868713%)" offset="0.769531"/><stop stop-opacity="1" stop-color="rgb(66.270447%, 83.898926%, 89.122009%)" offset="0.78125"/><stop stop-opacity="1" stop-color="rgb(66.204834%, 83.898926%, 89.373779%)" offset="0.792969"/><stop stop-opacity="1" stop-color="rgb(66.140747%, 83.898926%, 89.625549%)" offset="0.804688"/><stop stop-opacity="1" stop-color="rgb(66.087341%, 83.898926%, 89.836121%)" offset="0.816406"/><stop stop-opacity="1" stop-color="rgb(66.044617%, 83.898926%, 90.003967%)" offset="0.824219"/><stop stop-opacity="1" stop-color="rgb(66.001892%, 83.898926%, 90.171814%)" offset="0.832031"/><stop stop-opacity="1" stop-color="rgb(65.959167%, 83.898926%, 90.339661%)" offset="0.839844"/><stop stop-opacity="1" stop-color="rgb(65.893555%, 83.898926%, 90.591431%)" offset="0.847656"/><stop stop-opacity="1" stop-color="rgb(65.808105%, 83.898926%, 90.927124%)" offset="0.863281"/><stop stop-opacity="1" stop-color="rgb(65.733337%, 83.898926%, 91.221619%)" offset="0.878906"/><stop stop-opacity="1" stop-color="rgb(65.667725%, 83.898926%, 91.473389%)" offset="0.890625"/><stop stop-opacity="1" stop-color="rgb(65.603638%, 83.898926%, 91.725159%)" offset="0.902344"/><stop stop-opacity="1" stop-color="rgb(65.550232%, 83.898926%, 91.93573%)" offset="0.914062"/><stop stop-opacity="1" stop-color="rgb(65.507507%, 83.898926%, 92.103577%)" offset="0.921875"/><stop stop-opacity="1" stop-color="rgb(65.44342%, 83.898926%, 92.355347%)" offset="0.929688"/><stop stop-opacity="1" stop-color="rgb(65.367126%, 83.898926%, 92.648315%)" offset="0.945312"/><stop stop-opacity="1" stop-color="rgb(65.313721%, 83.898926%, 92.858887%)" offset="0.957031"/><stop stop-opacity="1" stop-color="rgb(65.249634%, 83.898926%, 93.110657%)" offset="0.964844"/><stop stop-opacity="1" stop-color="rgb(65.185547%, 83.898926%, 93.363953%)" offset="0.980469"/><stop stop-opacity="1" stop-color="rgb(65.130615%, 83.898926%, 93.572998%)" offset="0.988281"/><stop stop-opacity="1" stop-color="rgb(65.098572%, 83.898926%, 93.699646%)" offset="1"/></radialGradient><clipPath id="58e00b2ff2"><path d="M 609 0.140625 L 1024 0.140625 L 1024 577 L 609 577 Z M 609 0.140625 " clip-rule="nonzero"/></clipPath><mask id="d5e34eeb24"><g filter="url(#a940bf5ec8)"><rect x="-102.45" width="1229.4" fill="#000000" y="-58.2" height="698.4" fill-opacity="0.3"/></g></mask><clipPath id="8a261935fa"><path d="M 386 135 L 414.308594 135 L 414.308594 209 L 386 209 Z M 386 135 " clip-rule="nonzero"/></clipPath><clipPath id="f068105ad8"><path d="M 386 367 L 414.308594 367 L 414.308594 440 L 386 440 Z M 386 367 " clip-rule="nonzero"/></clipPath><clipPath id="3507750f6f"><path d="M 260 519 L 355 519 L 355 575.859375 L 260 575.859375 Z M 260 519 " clip-rule="nonzero"/></clipPath><clipPath id="bf483ab648"><path d="M 0.300781 519 L 95 519 L 95 575.859375 L 0.300781 575.859375 Z M 0.300781 519 " clip-rule="nonzero"/></clipPath><clipPath id="067eb90979"><path d="M 0.300781 260 L 95 260 L 95 316 L 0.300781 316 Z M 0.300781 260 " clip-rule="nonzero"/></clipPath><clipPath id="a216037b7b"><path d="M 260 0.140625 L 355 0.140625 L 355 56 L 260 56 Z M 260 0.140625 " clip-rule="nonzero"/></clipPath><clipPath id="f8ecb584c3"><path d="M 0.300781 0.140625 L 95 0.140625 L 95 56 L 0.300781 56 Z M 0.300781 0.140625 " clip-rule="nonzero"/></clipPath><clipPath id="5a8b632b55"><rect x="0" width="415" y="0" height="577"/></clipPath><clipPath id="a27dc246e3"><path d="M 0 0.140625 L 415 0.140625 L 415 577 L 0 577 Z M 0 0.140625 " clip-rule="nonzero"/></clipPath><mask id="360b9c547b"><g filter="url(#a940bf5ec8)"><rect x="-102.45" width="1229.4" fill="#000000" y="-58.2" height="698.4" fill-opacity="0.3"/></g></mask><clipPath id="c45e814aba"><path d="M 0 135 L 28 135 L 28 209 L 0 209 Z M 0 135 " clip-rule="nonzero"/></clipPath><clipPath id="8758d9f879"><path d="M 0 367 L 28 367 L 28 440 L 0 440 Z M 0 367 " clip-rule="nonzero"/></clipPath><clipPath id="3e3f9ce890"><path d="M 59 519 L 154 519 L 154 575.859375 L 59 575.859375 Z M 59 519 " clip-rule="nonzero"/></clipPath><clipPath id="7b0fcdbe1b"><path d="M 319 519 L 414 519 L 414 575.859375 L 319 575.859375 Z M 319 519 " clip-rule="nonzero"/></clipPath><clipPath id="57b823b6fb"><path d="M 59 0.140625 L 154 0.140625 L 154 56 L 59 56 Z M 59 0.140625 " clip-rule="nonzero"/></clipPath><clipPath id="c2def59a4b"><path d="M 319 0.140625 L 414 0.140625 L 414 56 L 319 56 Z M 319 0.140625 " clip-rule="nonzero"/></clipPath><clipPath id="366b1e8916"><rect x="0" width="415" y="0" height="577"/></clipPath></defs><g clip-path="url(#917358d6d9)"><path fill="#ffffff" d="M 0 0.140625 L 1024 0.140625 L 1024 581.859375 L 0 581.859375 Z M 0 0.140625 " fill-opacity="1" fill-rule="nonzero"/></g><g clip-path="url(#3fa4e1be69)"><path fill="url(#e34f800bfd)" d="M 0 0.867188 L 0 581.402344 L 1023.988281 581.402344 L 1023.988281 0.867188 Z M 0 0.867188 " fill-rule="nonzero"/></g><g clip-path="url(#58e00b2ff2)"><g mask="url(#d5e34eeb24)"><g transform="matrix(1, 0, 0, 1, 609, 0.000000000000012323)"><g clip-path="url(#5a8b632b55)"><g clip-path="url(#8a261935fa)"><path fill="#e2ebe5" d="M 393.382812 142.492188 L 440.453125 153.703125 C 441.15625 153.871094 441.730469 154.445312 441.898438 155.148438 L 453.109375 202.21875 C 453.320312 203.117188 452.96875 203.921875 452.164062 204.375 C 451.355469 204.824219 450.484375 204.703125 449.832031 204.050781 L 391.550781 145.769531 C 390.898438 145.117188 390.777344 144.246094 391.226562 143.4375 C 391.679688 142.628906 392.484375 142.277344 393.382812 142.492188 Z M 388.691406 148.628906 L 446.972656 206.910156 C 448.886719 208.828125 451.765625 209.226562 454.136719 207.90625 C 456.503906 206.582031 457.671875 203.921875 457.042969 201.28125 L 445.832031 154.210938 C 445.773438 153.96875 445.699219 153.722656 445.59375 153.453125 C 445.460938 153.097656 445.546875 152.695312 445.816406 152.429688 L 448.59375 149.648438 C 449.382812 148.859375 449.382812 147.578125 448.59375 146.785156 C 447 145.195312 447 142.605469 448.59375 141.015625 C 450.1875 139.425781 452.773438 139.425781 454.367188 141.015625 C 455.957031 142.605469 455.957031 145.195312 454.367188 146.785156 C 453.578125 147.578125 453.578125 148.859375 454.367188 149.648438 C 455.15625 150.4375 456.4375 150.4375 457.226562 149.648438 C 460.398438 146.480469 460.394531 141.324219 457.226562 138.15625 C 454.058594 134.984375 448.902344 134.984375 445.734375 138.15625 C 443.296875 140.589844 442.671875 144.320312 444.171875 147.433594 C 444.351562 147.804688 444.273438 148.246094 443.984375 148.535156 L 442.839844 149.683594 C 442.582031 149.9375 442.207031 150.03125 441.859375 149.917969 L 441.707031 149.867188 C 441.601562 149.832031 441.5 149.792969 441.390625 149.769531 L 394.316406 138.558594 C 391.679688 137.929688 389.019531 139.097656 387.695312 141.464844 C 386.375 143.832031 386.773438 146.710938 388.691406 148.628906 " fill-opacity="1" fill-rule="nonzero"/></g><g clip-path="url(#f068105ad8)"><path fill="#e2ebe5" d="M 453.109375 373.730469 L 441.898438 420.804688 C 441.730469 421.507812 441.15625 422.082031 440.453125 422.25 L 393.382812 433.457031 C 392.480469 433.671875 391.675781 433.320312 391.226562 432.515625 C 390.777344 431.707031 390.898438 430.835938 391.550781 430.183594 L 449.832031 371.902344 C 450.484375 371.25 451.355469 371.128906 452.160156 371.578125 C 452.96875 372.03125 453.320312 372.835938 453.109375 373.730469 Z M 446.972656 369.042969 L 388.691406 427.320312 C 386.773438 429.238281 386.375 432.117188 387.695312 434.484375 C 389.019531 436.855469 391.679688 438.019531 394.320312 437.394531 L 441.390625 426.183594 C 441.628906 426.125 441.878906 426.050781 442.148438 425.945312 C 442.503906 425.8125 442.902344 425.898438 443.171875 426.167969 L 445.953125 428.945312 C 446.738281 429.734375 448.023438 429.734375 448.8125 428.945312 C 450.402344 427.351562 452.992188 427.351562 454.582031 428.945312 C 456.175781 430.535156 456.175781 433.125 454.582031 434.71875 C 452.992188 436.308594 450.402344 436.308594 448.8125 434.71875 C 448.023438 433.929688 446.738281 433.929688 445.953125 434.71875 C 445.160156 435.507812 445.160156 436.789062 445.953125 437.578125 C 449.121094 440.75 454.273438 440.746094 457.445312 437.578125 C 460.613281 434.410156 460.613281 429.253906 457.445312 426.085938 C 455.007812 423.648438 451.28125 423.019531 448.164062 424.523438 C 447.796875 424.699219 447.355469 424.625 447.066406 424.335938 L 445.917969 423.191406 C 445.660156 422.933594 445.570312 422.554688 445.683594 422.210938 L 445.734375 422.058594 C 445.769531 421.953125 445.804688 421.851562 445.832031 421.738281 L 457.042969 374.667969 C 457.671875 372.03125 456.503906 369.371094 454.136719 368.046875 C 451.765625 366.726562 448.886719 367.125 446.972656 369.042969 " fill-opacity="1" fill-rule="nonzero"/></g><path fill="#e2ebe5" d="M 221.867188 433.457031 L 174.796875 422.25 C 174.089844 422.082031 173.519531 421.507812 173.351562 420.804688 L 162.140625 373.730469 C 161.929688 372.832031 162.28125 372.027344 163.085938 371.578125 C 163.890625 371.128906 164.761719 371.25 165.417969 371.902344 L 223.699219 430.183594 C 224.351562 430.835938 224.472656 431.707031 224.023438 432.511719 C 223.570312 433.320312 222.761719 433.671875 221.867188 433.457031 Z M 226.558594 427.320312 L 168.277344 369.042969 C 166.359375 367.125 163.480469 366.726562 161.113281 368.046875 C 158.746094 369.371094 157.578125 372.03125 158.207031 374.671875 L 169.417969 421.738281 C 169.472656 421.980469 169.550781 422.230469 169.65625 422.5 C 169.789062 422.855469 169.703125 423.253906 169.433594 423.523438 L 166.65625 426.304688 C 165.867188 427.089844 165.867188 428.375 166.65625 429.164062 C 168.246094 430.753906 168.246094 433.34375 166.65625 434.933594 C 165.0625 436.527344 162.472656 436.527344 160.882812 434.933594 C 159.289062 433.34375 159.289062 430.753906 160.882812 429.164062 C 161.671875 428.375 161.671875 427.089844 160.882812 426.304688 C 160.09375 425.511719 158.808594 425.511719 158.019531 426.304688 C 154.851562 429.46875 154.851562 434.625 158.019531 437.796875 C 161.191406 440.964844 166.347656 440.964844 169.515625 437.796875 C 171.953125 435.359375 172.578125 431.632812 171.074219 428.515625 C 170.898438 428.148438 170.972656 427.707031 171.261719 427.414062 L 172.410156 426.269531 C 172.664062 426.011719 173.042969 425.921875 173.390625 426.035156 L 173.542969 426.085938 C 173.648438 426.121094 173.75 426.15625 173.859375 426.183594 L 220.929688 437.394531 C 223.570312 438.019531 226.230469 436.855469 227.554688 434.484375 C 228.875 432.117188 228.476562 429.238281 226.558594 427.320312 " fill-opacity="1" fill-rule="nonzero"/><path fill="#e2ebe5" d="M 162.140625 202.21875 L 173.351562 155.148438 C 173.519531 154.441406 174.09375 153.871094 174.796875 153.703125 L 221.867188 142.492188 C 222.765625 142.277344 223.570312 142.632812 224.023438 143.4375 C 224.472656 144.242188 224.351562 145.113281 223.699219 145.769531 L 165.417969 204.046875 C 164.765625 204.703125 163.894531 204.820312 163.085938 204.375 C 162.28125 203.921875 161.929688 203.113281 162.140625 202.21875 Z M 168.277344 206.910156 L 226.558594 148.628906 C 228.476562 146.710938 228.875 143.832031 227.554688 141.464844 C 226.230469 139.097656 223.570312 137.929688 220.929688 138.558594 L 173.859375 149.769531 C 173.617188 149.824219 173.371094 149.902344 173.101562 150.003906 C 172.746094 150.140625 172.34375 150.054688 172.078125 149.785156 L 169.296875 147.007812 C 168.507812 146.21875 167.226562 146.21875 166.4375 147.007812 C 164.847656 148.597656 162.253906 148.597656 160.664062 147.007812 C 159.074219 145.414062 159.074219 142.824219 160.664062 141.234375 C 162.253906 139.640625 164.847656 139.640625 166.4375 141.234375 C 167.226562 142.019531 168.507812 142.019531 169.296875 141.234375 C 170.085938 140.445312 170.085938 139.164062 169.296875 138.371094 C 166.128906 135.203125 160.972656 135.203125 157.804688 138.371094 C 154.632812 141.542969 154.632812 146.699219 157.804688 149.867188 C 160.242188 152.300781 163.96875 152.929688 167.085938 151.425781 C 167.453125 151.25 167.894531 151.324219 168.183594 151.613281 L 169.332031 152.761719 C 169.585938 153.015625 169.679688 153.394531 169.566406 153.738281 L 169.515625 153.890625 C 169.476562 153.996094 169.441406 154.101562 169.414062 154.210938 L 158.207031 201.28125 C 157.578125 203.921875 158.746094 206.582031 161.113281 207.90625 C 163.480469 209.226562 166.359375 208.828125 168.277344 206.910156 " fill-opacity="1" fill-rule="nonzero"/><g clip-path="url(#3507750f6f)"><path fill="#e2ebe5" d="M 265.390625 568.171875 L 306.601562 542.816406 C 307.21875 542.433594 308.03125 542.433594 308.644531 542.816406 L 349.855469 568.171875 C 350.644531 568.65625 350.960938 569.476562 350.710938 570.367188 C 350.460938 571.25 349.757812 571.785156 348.835938 571.785156 L 266.414062 571.785156 C 265.492188 571.785156 264.789062 571.257812 264.535156 570.367188 C 264.289062 569.472656 264.605469 568.65625 265.390625 568.171875 Z M 266.414062 575.828125 L 348.835938 575.828125 C 351.546875 575.828125 353.867188 574.074219 354.605469 571.464844 C 355.34375 568.859375 354.289062 566.152344 351.976562 564.726562 L 310.765625 539.371094 C 310.558594 539.238281 310.324219 539.121094 310.0625 539 C 309.714844 538.84375 309.492188 538.503906 309.492188 538.121094 L 309.492188 534.191406 C 309.492188 533.078125 308.585938 532.167969 307.46875 532.167969 C 305.21875 532.167969 303.386719 530.335938 303.386719 528.085938 C 303.386719 525.835938 305.21875 524.003906 307.46875 524.003906 C 309.722656 524.003906 311.554688 525.835938 311.554688 528.085938 C 311.554688 529.203125 312.460938 530.109375 313.574219 530.109375 C 314.691406 530.109375 315.597656 529.203125 315.597656 528.085938 C 315.597656 523.605469 311.953125 519.960938 307.46875 519.960938 C 302.988281 519.960938 299.34375 523.605469 299.34375 528.085938 C 299.34375 531.53125 301.535156 534.613281 304.800781 535.753906 C 305.1875 535.890625 305.449219 536.253906 305.449219 536.664062 L 305.449219 538.28125 C 305.449219 538.644531 305.246094 538.980469 304.921875 539.140625 L 304.777344 539.214844 C 304.679688 539.265625 304.578125 539.308594 304.480469 539.371094 L 263.273438 564.726562 C 260.960938 566.152344 259.90625 568.859375 260.644531 571.464844 C 261.382812 574.074219 263.703125 575.828125 266.414062 575.828125 " fill-opacity="1" fill-rule="nonzero"/></g><g clip-path="url(#bf483ab648)"><path fill="#e2ebe5" d="M 5.472656 568.171875 L 46.683594 542.816406 C 47.300781 542.433594 48.113281 542.433594 48.726562 542.816406 L 89.9375 568.171875 C 90.726562 568.65625 91.042969 569.476562 90.792969 570.367188 C 90.542969 571.25 89.839844 571.785156 88.917969 571.785156 L 6.496094 571.785156 C 5.574219 571.785156 4.871094 571.257812 4.617188 570.367188 C 4.367188 569.472656 4.6875 568.65625 5.472656 568.171875 Z M 6.496094 575.828125 L 88.917969 575.828125 C 91.628906 575.828125 93.949219 574.074219 94.6875 571.464844 C 95.421875 568.859375 94.367188 566.152344 92.058594 564.726562 L 50.847656 539.371094 C 50.636719 539.238281 50.40625 539.121094 50.144531 539 C 49.796875 538.84375 49.574219 538.503906 49.574219 538.121094 L 49.574219 534.191406 C 49.574219 533.078125 48.667969 532.167969 47.550781 532.167969 C 45.300781 532.167969 43.46875 530.335938 43.46875 528.085938 C 43.46875 525.835938 45.300781 524.003906 47.550781 524.003906 C 49.804688 524.003906 51.632812 525.835938 51.632812 528.085938 C 51.632812 529.203125 52.542969 530.109375 53.65625 530.109375 C 54.773438 530.109375 55.679688 529.203125 55.679688 528.085938 C 55.679688 523.605469 52.035156 519.960938 47.550781 519.960938 C 43.070312 519.960938 39.425781 523.605469 39.425781 528.085938 C 39.425781 531.53125 41.617188 534.613281 44.882812 535.753906 C 45.269531 535.890625 45.53125 536.253906 45.53125 536.664062 L 45.53125 538.28125 C 45.53125 538.644531 45.328125 538.980469 45.003906 539.140625 L 44.859375 539.214844 C 44.761719 539.265625 44.660156 539.308594 44.566406 539.371094 L 3.355469 564.726562 C 1.042969 566.152344 -0.0117188 568.859375 0.726562 571.464844 C 1.464844 574.074219 3.785156 575.828125 6.496094 575.828125 " fill-opacity="1" fill-rule="nonzero"/></g><path fill="#e2ebe5" d="M 265.390625 308.253906 L 306.601562 282.898438 C 307.21875 282.515625 308.03125 282.515625 308.644531 282.898438 L 349.855469 308.253906 C 350.644531 308.738281 350.960938 309.558594 350.710938 310.445312 C 350.460938 311.332031 349.757812 311.863281 348.835938 311.863281 L 266.414062 311.863281 C 265.492188 311.863281 264.789062 311.335938 264.535156 310.449219 C 264.289062 309.554688 264.605469 308.738281 265.390625 308.253906 Z M 266.414062 315.910156 L 348.835938 315.910156 C 351.546875 315.910156 353.867188 314.15625 354.605469 311.546875 C 355.34375 308.9375 354.289062 306.230469 351.976562 304.808594 L 310.765625 279.449219 C 310.558594 279.320312 310.324219 279.203125 310.0625 279.082031 C 309.714844 278.925781 309.492188 278.582031 309.492188 278.203125 L 309.492188 274.273438 C 309.492188 273.15625 308.585938 272.25 307.46875 272.25 C 305.21875 272.25 303.386719 270.417969 303.386719 268.167969 C 303.386719 265.917969 305.21875 264.085938 307.46875 264.085938 C 309.722656 264.085938 311.554688 265.917969 311.554688 268.167969 C 311.554688 269.285156 312.460938 270.191406 313.574219 270.191406 C 314.691406 270.191406 315.597656 269.285156 315.597656 268.167969 C 315.597656 263.6875 311.953125 260.042969 307.46875 260.042969 C 302.988281 260.042969 299.34375 263.6875 299.34375 268.167969 C 299.34375 271.613281 301.535156 274.695312 304.800781 275.835938 C 305.1875 275.96875 305.449219 276.335938 305.449219 276.746094 L 305.449219 278.363281 C 305.449219 278.726562 305.246094 279.0625 304.921875 279.222656 L 304.777344 279.296875 C 304.679688 279.34375 304.578125 279.390625 304.480469 279.449219 L 263.273438 304.808594 C 260.960938 306.230469 259.90625 308.9375 260.644531 311.546875 C 261.382812 314.15625 263.703125 315.910156 266.414062 315.910156 " fill-opacity="1" fill-rule="nonzero"/><g clip-path="url(#067eb90979)"><path fill="#e2ebe5" d="M 5.472656 308.253906 L 46.683594 282.898438 C 47.300781 282.515625 48.113281 282.515625 48.726562 282.898438 L 89.9375 308.253906 C 90.726562 308.738281 91.042969 309.558594 90.792969 310.445312 C 90.542969 311.332031 89.839844 311.863281 88.917969 311.863281 L 6.496094 311.863281 C 5.574219 311.863281 4.871094 311.335938 4.617188 310.449219 C 4.367188 309.554688 4.6875 308.738281 5.472656 308.253906 Z M 6.496094 315.910156 L 88.917969 315.910156 C 91.628906 315.910156 93.949219 314.15625 94.6875 311.546875 C 95.421875 308.9375 94.367188 306.230469 92.058594 304.808594 L 50.847656 279.449219 C 50.636719 279.320312 50.40625 279.203125 50.144531 279.082031 C 49.796875 278.925781 49.574219 278.582031 49.574219 278.203125 L 49.574219 274.273438 C 49.574219 273.15625 48.667969 272.25 47.550781 272.25 C 45.300781 272.25 43.46875 270.417969 43.46875 268.167969 C 43.46875 265.917969 45.300781 264.085938 47.550781 264.085938 C 49.804688 264.085938 51.632812 265.917969 51.632812 268.167969 C 51.632812 269.285156 52.542969 270.191406 53.65625 270.191406 C 54.773438 270.191406 55.679688 269.285156 55.679688 268.167969 C 55.679688 263.6875 52.035156 260.042969 47.550781 260.042969 C 43.070312 260.042969 39.425781 263.6875 39.425781 268.167969 C 39.425781 271.613281 41.617188 274.695312 44.882812 275.835938 C 45.269531 275.96875 45.53125 276.335938 45.53125 276.746094 L 45.53125 278.363281 C 45.53125 278.726562 45.328125 279.0625 45.003906 279.222656 L 44.859375 279.296875 C 44.761719 279.34375 44.660156 279.390625 44.566406 279.449219 L 3.355469 304.808594 C 1.042969 306.230469 -0.0117188 308.9375 0.726562 311.546875 C 1.464844 314.15625 3.785156 315.910156 6.496094 315.910156 " fill-opacity="1" fill-rule="nonzero"/></g><g clip-path="url(#a216037b7b)"><path fill="#e2ebe5" d="M 265.390625 48.335938 L 306.601562 22.980469 C 307.21875 22.597656 308.03125 22.597656 308.644531 22.980469 L 349.855469 48.335938 C 350.644531 48.820312 350.960938 49.640625 350.710938 50.527344 C 350.460938 51.414062 349.757812 51.945312 348.835938 51.945312 L 266.414062 51.945312 C 265.492188 51.945312 264.789062 51.417969 264.535156 50.53125 C 264.289062 49.636719 264.605469 48.816406 265.390625 48.335938 Z M 266.414062 55.992188 L 348.835938 55.992188 C 351.546875 55.992188 353.867188 54.238281 354.605469 51.628906 C 355.34375 49.019531 354.289062 46.3125 351.976562 44.890625 L 310.765625 19.53125 C 310.558594 19.402344 310.324219 19.28125 310.0625 19.164062 C 309.714844 19.007812 309.492188 18.664062 309.492188 18.285156 L 309.492188 14.355469 C 309.492188 13.234375 308.585938 12.332031 307.46875 12.332031 C 305.21875 12.332031 303.386719 10.503906 303.386719 8.25 C 303.386719 6 305.21875 4.164062 307.46875 4.164062 C 309.722656 4.164062 311.554688 6 311.554688 8.25 C 311.554688 9.363281 312.460938 10.273438 313.574219 10.273438 C 314.691406 10.273438 315.597656 9.363281 315.597656 8.25 C 315.597656 3.769531 311.953125 0.121094 307.46875 0.121094 C 302.988281 0.121094 299.34375 3.769531 299.34375 8.25 C 299.34375 11.699219 301.535156 14.773438 304.800781 15.917969 C 305.1875 16.054688 305.449219 16.417969 305.449219 16.828125 L 305.449219 18.445312 C 305.449219 18.808594 305.246094 19.144531 304.921875 19.304688 L 304.777344 19.375 C 304.679688 19.425781 304.578125 19.472656 304.480469 19.53125 L 263.273438 44.890625 C 260.960938 46.3125 259.90625 49.019531 260.644531 51.628906 C 261.382812 54.238281 263.703125 55.992188 266.414062 55.992188 " fill-opacity="1" fill-rule="nonzero"/></g><g clip-path="url(#f8ecb584c3)"><path fill="#e2ebe5" d="M 5.472656 48.335938 L 46.683594 22.980469 C 47.300781 22.597656 48.113281 22.597656 48.726562 22.980469 L 89.9375 48.335938 C 90.726562 48.820312 91.042969 49.640625 90.792969 50.527344 C 90.542969 51.414062 89.839844 51.945312 88.917969 51.945312 L 6.496094 51.945312 C 5.574219 51.945312 4.871094 51.417969 4.617188 50.53125 C 4.367188 49.636719 4.6875 48.816406 5.472656 48.335938 Z M 6.496094 55.992188 L 88.917969 55.992188 C 91.628906 55.992188 93.949219 54.238281 94.6875 51.628906 C 95.421875 49.019531 94.367188 46.3125 92.058594 44.890625 L 50.847656 19.53125 C 50.636719 19.402344 50.40625 19.28125 50.144531 19.164062 C 49.796875 19.007812 49.574219 18.664062 49.574219 18.285156 L 49.574219 14.355469 C 49.574219 13.234375 48.667969 12.332031 47.550781 12.332031 C 45.300781 12.332031 43.46875 10.503906 43.46875 8.25 C 43.46875 6 45.300781 4.164062 47.550781 4.164062 C 49.804688 4.164062 51.632812 6 51.632812 8.25 C 51.632812 9.363281 52.542969 10.273438 53.65625 10.273438 C 54.773438 10.273438 55.679688 9.363281 55.679688 8.25 C 55.679688 3.769531 52.035156 0.121094 47.550781 0.121094 C 43.070312 0.121094 39.425781 3.769531 39.425781 8.25 C 39.425781 11.699219 41.617188 14.773438 44.882812 15.917969 C 45.269531 16.054688 45.53125 16.417969 45.53125 16.828125 L 45.53125 18.445312 C 45.53125 18.808594 45.328125 19.144531 45.003906 19.304688 L 44.859375 19.375 C 44.761719 19.425781 44.660156 19.472656 44.566406 19.53125 L 3.355469 44.890625 C 1.042969 46.3125 -0.0117188 49.019531 0.726562 51.628906 C 1.464844 54.238281 3.785156 55.992188 6.496094 55.992188 " fill-opacity="1" fill-rule="nonzero"/></g></g></g></g></g><g clip-path="url(#a27dc246e3)"><g mask="url(#360b9c547b)"><g transform="matrix(1, 0, 0, 1, 0, 0.000000000000012323)"><g clip-path="url(#366b1e8916)"><g clip-path="url(#c45e814aba)"><path fill="#e2ebe5" d="M 20.867188 142.492188 L -26.203125 153.703125 C -26.910156 153.871094 -27.480469 154.445312 -27.652344 155.148438 L -38.859375 202.21875 C -39.074219 203.117188 -38.71875 203.921875 -37.914062 204.375 C -37.109375 204.824219 -36.238281 204.703125 -35.585938 204.050781 L 22.695312 145.769531 C 23.351562 145.117188 23.46875 144.246094 23.019531 143.4375 C 22.570312 142.628906 21.761719 142.277344 20.867188 142.492188 Z M 25.558594 148.628906 L -32.722656 206.910156 C -34.640625 208.828125 -37.519531 209.226562 -39.886719 207.90625 C -42.253906 206.582031 -43.421875 203.921875 -42.792969 201.28125 L -31.582031 154.210938 C -31.527344 153.96875 -31.449219 153.722656 -31.347656 153.453125 C -31.210938 153.097656 -31.296875 152.695312 -31.566406 152.429688 L -34.34375 149.648438 C -35.132812 148.859375 -35.132812 147.578125 -34.34375 146.785156 C -32.753906 145.195312 -32.753906 142.605469 -34.34375 141.015625 C -35.9375 139.425781 -38.527344 139.425781 -40.117188 141.015625 C -41.710938 142.605469 -41.710938 145.195312 -40.117188 146.785156 C -39.332031 147.578125 -39.332031 148.859375 -40.117188 149.648438 C -40.910156 150.4375 -42.191406 150.4375 -42.980469 149.648438 C -46.148438 146.480469 -46.148438 141.324219 -42.980469 138.15625 C -39.808594 134.984375 -34.652344 134.984375 -31.484375 138.15625 C -29.050781 140.589844 -28.421875 144.320312 -29.925781 147.433594 C -30.101562 147.804688 -30.027344 148.246094 -29.738281 148.535156 L -28.589844 149.683594 C -28.335938 149.9375 -27.957031 150.03125 -27.613281 149.917969 L -27.460938 149.867188 C -27.355469 149.832031 -27.25 149.792969 -27.140625 149.769531 L 19.929688 138.558594 C 22.570312 137.929688 25.230469 139.097656 26.550781 141.464844 C 27.875 143.832031 27.472656 146.710938 25.558594 148.628906 " fill-opacity="1" fill-rule="nonzero"/></g><g clip-path="url(#8758d9f879)"><path fill="#e2ebe5" d="M -38.859375 373.730469 L -27.652344 420.804688 C -27.480469 421.507812 -26.90625 422.082031 -26.203125 422.25 L 20.867188 433.457031 C 21.765625 433.671875 22.570312 433.320312 23.019531 432.515625 C 23.472656 431.707031 23.351562 430.835938 22.699219 430.183594 L -35.585938 371.902344 C -36.234375 371.25 -37.105469 371.128906 -37.914062 371.578125 C -38.722656 372.03125 -39.074219 372.835938 -38.859375 373.730469 Z M -32.722656 369.042969 L 25.558594 427.320312 C 27.472656 429.238281 27.875 432.117188 26.550781 434.484375 C 25.230469 436.855469 22.570312 438.019531 19.929688 437.394531 L -27.140625 426.183594 C -27.382812 426.125 -27.628906 426.050781 -27.898438 425.945312 C -28.253906 425.8125 -28.65625 425.898438 -28.921875 426.167969 L -31.703125 428.945312 C -32.492188 429.734375 -33.773438 429.734375 -34.566406 428.945312 C -36.15625 427.351562 -38.746094 427.351562 -40.335938 428.945312 C -41.925781 430.535156 -41.925781 433.125 -40.335938 434.71875 C -38.746094 436.308594 -36.15625 436.308594 -34.566406 434.71875 C -33.773438 433.929688 -32.492188 433.929688 -31.703125 434.71875 C -30.914062 435.507812 -30.914062 436.789062 -31.703125 437.578125 C -34.871094 440.75 -40.027344 440.746094 -43.195312 437.578125 C -46.367188 434.410156 -46.367188 429.253906 -43.195312 426.085938 C -40.761719 423.648438 -37.03125 423.019531 -33.917969 424.523438 C -33.546875 424.699219 -33.105469 424.625 -32.816406 424.335938 L -31.667969 423.191406 C -31.414062 422.933594 -31.320312 422.554688 -31.4375 422.210938 L -31.484375 422.058594 C -31.519531 421.953125 -31.558594 421.851562 -31.582031 421.738281 L -42.792969 374.667969 C -43.421875 372.03125 -42.253906 369.371094 -39.886719 368.046875 C -37.519531 366.726562 -34.640625 367.125 -32.722656 369.042969 " fill-opacity="1" fill-rule="nonzero"/></g><path fill="#e2ebe5" d="M 192.378906 433.457031 L 239.453125 422.25 C 240.15625 422.082031 240.730469 421.507812 240.898438 420.804688 L 252.105469 373.730469 C 252.320312 372.832031 251.964844 372.027344 251.164062 371.578125 C 250.355469 371.128906 249.484375 371.25 248.832031 371.902344 L 190.550781 430.183594 C 189.898438 430.835938 189.777344 431.707031 190.226562 432.511719 C 190.679688 433.320312 191.484375 433.671875 192.378906 433.457031 Z M 187.691406 427.320312 L 245.96875 369.042969 C 247.890625 367.125 250.765625 366.726562 253.132812 368.046875 C 255.503906 369.371094 256.667969 372.03125 256.042969 374.671875 L 244.832031 421.738281 C 244.773438 421.980469 244.695312 422.230469 244.59375 422.5 C 244.460938 422.855469 244.542969 423.253906 244.8125 423.523438 L 247.59375 426.304688 C 248.382812 427.089844 248.382812 428.375 247.59375 429.164062 C 246 430.753906 246 433.34375 247.59375 434.933594 C 249.183594 436.527344 251.773438 436.527344 253.367188 434.933594 C 254.957031 433.34375 254.957031 430.753906 253.367188 429.164062 C 252.578125 428.375 252.578125 427.089844 253.367188 426.304688 C 254.15625 425.511719 255.4375 425.511719 256.226562 426.304688 C 259.394531 429.46875 259.394531 434.625 256.226562 437.796875 C 253.058594 440.964844 247.902344 440.964844 244.734375 437.796875 C 242.296875 435.359375 241.667969 431.632812 243.171875 428.515625 C 243.347656 428.148438 243.273438 427.707031 242.984375 427.414062 L 241.839844 426.269531 C 241.582031 426.011719 241.203125 425.921875 240.859375 426.035156 L 240.707031 426.085938 C 240.601562 426.121094 240.496094 426.15625 240.386719 426.183594 L 193.316406 437.394531 C 190.679688 438.019531 188.019531 436.855469 186.695312 434.484375 C 185.371094 432.117188 185.773438 429.238281 187.691406 427.320312 " fill-opacity="1" fill-rule="nonzero"/><path fill="#e2ebe5" d="M 252.105469 202.21875 L 240.898438 155.148438 C 240.730469 154.441406 240.15625 153.871094 239.453125 153.703125 L 192.378906 142.492188 C 191.480469 142.277344 190.675781 142.632812 190.226562 143.4375 C 189.773438 144.242188 189.898438 145.113281 190.550781 145.769531 L 248.832031 204.046875 C 249.484375 204.703125 250.355469 204.820312 251.160156 204.375 C 251.96875 203.921875 252.320312 203.113281 252.105469 202.21875 Z M 245.96875 206.910156 L 187.691406 148.628906 C 185.773438 146.710938 185.371094 143.832031 186.695312 141.464844 C 188.019531 139.097656 190.679688 137.929688 193.320312 138.558594 L 240.386719 149.769531 C 240.628906 149.824219 240.878906 149.902344 241.148438 150.003906 C 241.503906 150.140625 241.902344 150.054688 242.171875 149.785156 L 244.949219 147.007812 C 245.738281 146.21875 247.023438 146.21875 247.8125 147.007812 C 249.402344 148.597656 251.992188 148.597656 253.585938 147.007812 C 255.175781 145.414062 255.175781 142.824219 253.582031 141.234375 C 251.992188 139.640625 249.402344 139.640625 247.8125 141.234375 C 247.023438 142.019531 245.738281 142.019531 244.949219 141.234375 C 244.160156 140.445312 244.160156 139.164062 244.949219 138.371094 C 248.117188 135.203125 253.273438 135.203125 256.445312 138.371094 C 259.613281 141.542969 259.613281 146.699219 256.445312 149.867188 C 254.007812 152.300781 250.28125 152.929688 247.164062 151.425781 C 246.792969 151.25 246.351562 151.324219 246.0625 151.613281 L 244.917969 152.761719 C 244.660156 153.015625 244.570312 153.394531 244.683594 153.738281 L 244.734375 153.890625 C 244.769531 153.996094 244.808594 154.101562 244.832031 154.210938 L 256.042969 201.28125 C 256.667969 203.921875 255.503906 206.582031 253.132812 207.90625 C 250.765625 209.226562 247.886719 208.828125 245.96875 206.910156 " fill-opacity="1" fill-rule="nonzero"/><g clip-path="url(#3e3f9ce890)"><path fill="#e2ebe5" d="M 148.855469 568.171875 L 107.648438 542.816406 C 107.027344 542.433594 106.21875 542.433594 105.601562 542.816406 L 64.390625 568.171875 C 63.605469 568.65625 63.285156 569.476562 63.535156 570.367188 C 63.789062 571.25 64.488281 571.785156 65.414062 571.785156 L 147.835938 571.785156 C 148.757812 571.785156 149.457031 571.257812 149.710938 570.367188 C 149.960938 569.472656 149.640625 568.65625 148.855469 568.171875 Z M 147.835938 575.828125 L 65.414062 575.828125 C 62.703125 575.828125 60.382812 574.074219 59.644531 571.464844 C 58.90625 568.859375 59.960938 566.152344 62.269531 564.726562 L 103.480469 539.371094 C 103.691406 539.238281 103.921875 539.121094 104.1875 539 C 104.53125 538.84375 104.753906 538.503906 104.753906 538.121094 L 104.753906 534.191406 C 104.753906 533.078125 105.664062 532.167969 106.777344 532.167969 C 109.027344 532.167969 110.859375 530.335938 110.859375 528.085938 C 110.859375 525.835938 109.027344 524.003906 106.777344 524.003906 C 104.527344 524.003906 102.695312 525.835938 102.695312 528.085938 C 102.695312 529.203125 101.789062 530.109375 100.675781 530.109375 C 99.558594 530.109375 98.648438 529.203125 98.648438 528.085938 C 98.648438 523.605469 102.296875 519.960938 106.777344 519.960938 C 111.257812 519.960938 114.90625 523.605469 114.90625 528.085938 C 114.90625 531.53125 112.710938 534.613281 109.445312 535.753906 C 109.058594 535.890625 108.800781 536.253906 108.800781 536.664062 L 108.800781 538.28125 C 108.800781 538.644531 109.003906 538.980469 109.328125 539.140625 L 109.46875 539.214844 C 109.570312 539.265625 109.667969 539.308594 109.765625 539.371094 L 150.976562 564.726562 C 153.289062 566.152344 154.34375 568.859375 153.605469 571.464844 C 152.863281 574.074219 150.546875 575.828125 147.835938 575.828125 " fill-opacity="1" fill-rule="nonzero"/></g><g clip-path="url(#7b0fcdbe1b)"><path fill="#e2ebe5" d="M 408.773438 568.171875 L 367.566406 542.816406 C 366.949219 542.433594 366.136719 542.433594 365.519531 542.816406 L 324.308594 568.171875 C 323.523438 568.65625 323.203125 569.476562 323.453125 570.367188 C 323.707031 571.25 324.40625 571.785156 325.332031 571.785156 L 407.753906 571.785156 C 408.675781 571.785156 409.378906 571.257812 409.628906 570.367188 C 409.878906 569.472656 409.558594 568.65625 408.773438 568.171875 Z M 407.753906 575.828125 L 325.332031 575.828125 C 322.621094 575.828125 320.300781 574.074219 319.5625 571.464844 C 318.824219 568.859375 319.878906 566.152344 322.1875 564.726562 L 363.402344 539.371094 C 363.609375 539.238281 363.839844 539.121094 364.105469 539 C 364.449219 538.84375 364.675781 538.503906 364.675781 538.121094 L 364.675781 534.191406 C 364.675781 533.078125 365.582031 532.167969 366.695312 532.167969 C 368.945312 532.167969 370.777344 530.335938 370.777344 528.085938 C 370.777344 525.835938 368.945312 524.003906 366.695312 524.003906 C 364.445312 524.003906 362.613281 525.835938 362.613281 528.085938 C 362.613281 529.203125 361.707031 530.109375 360.589844 530.109375 C 359.476562 530.109375 358.566406 529.203125 358.566406 528.085938 C 358.566406 523.605469 362.214844 519.960938 366.695312 519.960938 C 371.179688 519.960938 374.824219 523.605469 374.824219 528.085938 C 374.824219 531.53125 372.628906 534.613281 369.363281 535.753906 C 368.980469 535.890625 368.71875 536.253906 368.71875 536.664062 L 368.71875 538.28125 C 368.71875 538.644531 368.921875 538.980469 369.246094 539.140625 L 369.390625 539.214844 C 369.488281 539.265625 369.589844 539.308594 369.683594 539.371094 L 410.894531 564.726562 C 413.207031 566.152344 414.257812 568.859375 413.523438 571.464844 C 412.78125 574.074219 410.464844 575.828125 407.753906 575.828125 " fill-opacity="1" fill-rule="nonzero"/></g><path fill="#e2ebe5" d="M 148.855469 308.253906 L 107.648438 282.898438 C 107.027344 282.515625 106.21875 282.515625 105.601562 282.898438 L 64.390625 308.253906 C 63.605469 308.738281 63.285156 309.558594 63.535156 310.445312 C 63.789062 311.332031 64.488281 311.863281 65.414062 311.863281 L 147.835938 311.863281 C 148.757812 311.863281 149.457031 311.335938 149.710938 310.449219 C 149.960938 309.554688 149.640625 308.738281 148.855469 308.253906 Z M 147.835938 315.910156 L 65.414062 315.910156 C 62.703125 315.910156 60.382812 314.15625 59.644531 311.546875 C 58.90625 308.9375 59.960938 306.230469 62.269531 304.808594 L 103.480469 279.449219 C 103.691406 279.320312 103.921875 279.203125 104.1875 279.082031 C 104.53125 278.925781 104.753906 278.582031 104.753906 278.203125 L 104.753906 274.273438 C 104.753906 273.15625 105.664062 272.25 106.777344 272.25 C 109.027344 272.25 110.859375 270.417969 110.859375 268.167969 C 110.859375 265.917969 109.027344 264.085938 106.777344 264.085938 C 104.527344 264.085938 102.695312 265.917969 102.695312 268.167969 C 102.695312 269.285156 101.789062 270.191406 100.675781 270.191406 C 99.558594 270.191406 98.648438 269.285156 98.648438 268.167969 C 98.648438 263.6875 102.296875 260.042969 106.777344 260.042969 C 111.257812 260.042969 114.90625 263.6875 114.90625 268.167969 C 114.90625 271.613281 112.710938 274.695312 109.445312 275.835938 C 109.058594 275.96875 108.800781 276.335938 108.800781 276.746094 L 108.800781 278.363281 C 108.800781 278.726562 109.003906 279.0625 109.328125 279.222656 L 109.46875 279.296875 C 109.570312 279.34375 109.667969 279.390625 109.765625 279.449219 L 150.976562 304.808594 C 153.289062 306.230469 154.34375 308.9375 153.605469 311.546875 C 152.863281 314.15625 150.546875 315.910156 147.835938 315.910156 " fill-opacity="1" fill-rule="nonzero"/><path fill="#e2ebe5" d="M 408.773438 308.253906 L 367.566406 282.898438 C 366.949219 282.515625 366.136719 282.515625 365.519531 282.898438 L 324.308594 308.253906 C 323.523438 308.738281 323.203125 309.558594 323.453125 310.445312 C 323.707031 311.332031 324.40625 311.863281 325.332031 311.863281 L 407.753906 311.863281 C 408.675781 311.863281 409.378906 311.335938 409.628906 310.449219 C 409.878906 309.554688 409.558594 308.738281 408.773438 308.253906 Z M 407.753906 315.910156 L 325.332031 315.910156 C 322.621094 315.910156 320.300781 314.15625 319.5625 311.546875 C 318.824219 308.9375 319.878906 306.230469 322.1875 304.808594 L 363.402344 279.449219 C 363.609375 279.320312 363.839844 279.203125 364.105469 279.082031 C 364.449219 278.925781 364.675781 278.582031 364.675781 278.203125 L 364.675781 274.273438 C 364.675781 273.15625 365.582031 272.25 366.695312 272.25 C 368.945312 272.25 370.777344 270.417969 370.777344 268.167969 C 370.777344 265.917969 368.945312 264.085938 366.695312 264.085938 C 364.445312 264.085938 362.613281 265.917969 362.613281 268.167969 C 362.613281 269.285156 361.707031 270.191406 360.589844 270.191406 C 359.476562 270.191406 358.566406 269.285156 358.566406 268.167969 C 358.566406 263.6875 362.214844 260.042969 366.695312 260.042969 C 371.179688 260.042969 374.824219 263.6875 374.824219 268.167969 C 374.824219 271.613281 372.628906 274.695312 369.363281 275.835938 C 368.980469 275.96875 368.71875 276.335938 368.71875 276.746094 L 368.71875 278.363281 C 368.71875 278.726562 368.921875 279.0625 369.246094 279.222656 L 369.390625 279.296875 C 369.488281 279.34375 369.589844 279.390625 369.683594 279.449219 L 410.894531 304.808594 C 413.207031 306.230469 414.257812 308.9375 413.523438 311.546875 C 412.78125 314.15625 410.464844 315.910156 407.753906 315.910156 " fill-opacity="1" fill-rule="nonzero"/><g clip-path="url(#57b823b6fb)"><path fill="#e2ebe5" d="M 148.855469 48.335938 L 107.648438 22.980469 C 107.027344 22.597656 106.21875 22.597656 105.601562 22.980469 L 64.390625 48.335938 C 63.605469 48.820312 63.285156 49.640625 63.535156 50.527344 C 63.789062 51.414062 64.488281 51.945312 65.414062 51.945312 L 147.835938 51.945312 C 148.757812 51.945312 149.457031 51.417969 149.710938 50.53125 C 149.960938 49.636719 149.640625 48.816406 148.855469 48.335938 Z M 147.835938 55.992188 L 65.414062 55.992188 C 62.703125 55.992188 60.382812 54.238281 59.644531 51.628906 C 58.90625 49.019531 59.960938 46.3125 62.269531 44.890625 L 103.480469 19.53125 C 103.691406 19.402344 103.921875 19.28125 104.1875 19.164062 C 104.53125 19.007812 104.753906 18.664062 104.753906 18.285156 L 104.753906 14.355469 C 104.753906 13.234375 105.664062 12.332031 106.777344 12.332031 C 109.027344 12.332031 110.859375 10.503906 110.859375 8.25 C 110.859375 6 109.027344 4.164062 106.777344 4.164062 C 104.527344 4.164062 102.695312 6 102.695312 8.25 C 102.695312 9.363281 101.789062 10.273438 100.675781 10.273438 C 99.558594 10.273438 98.648438 9.363281 98.648438 8.25 C 98.648438 3.769531 102.296875 0.121094 106.777344 0.121094 C 111.257812 0.121094 114.90625 3.769531 114.90625 8.25 C 114.90625 11.699219 112.710938 14.773438 109.445312 15.917969 C 109.058594 16.054688 108.800781 16.417969 108.800781 16.828125 L 108.800781 18.445312 C 108.800781 18.808594 109.003906 19.144531 109.328125 19.304688 L 109.46875 19.375 C 109.570312 19.425781 109.667969 19.472656 109.765625 19.53125 L 150.976562 44.890625 C 153.289062 46.3125 154.34375 49.019531 153.605469 51.628906 C 152.863281 54.238281 150.546875 55.992188 147.835938 55.992188 " fill-opacity="1" fill-rule="nonzero"/></g><g clip-path="url(#c2def59a4b)"><path fill="#e2ebe5" d="M 408.773438 48.335938 L 367.566406 22.980469 C 366.949219 22.597656 366.136719 22.597656 365.519531 22.980469 L 324.308594 48.335938 C 323.523438 48.820312 323.203125 49.640625 323.453125 50.527344 C 323.707031 51.414062 324.40625 51.945312 325.332031 51.945312 L 407.753906 51.945312 C 408.675781 51.945312 409.378906 51.417969 409.628906 50.53125 C 409.878906 49.636719 409.558594 48.816406 408.773438 48.335938 Z M 407.753906 55.992188 L 325.332031 55.992188 C 322.621094 55.992188 320.300781 54.238281 319.5625 51.628906 C 318.824219 49.019531 319.878906 46.3125 322.1875 44.890625 L 363.402344 19.53125 C 363.609375 19.402344 363.839844 19.28125 364.105469 19.164062 C 364.449219 19.007812 364.675781 18.664062 364.675781 18.285156 L 364.675781 14.355469 C 364.675781 13.234375 365.582031 12.332031 366.695312 12.332031 C 368.945312 12.332031 370.777344 10.503906 370.777344 8.25 C 370.777344 6 368.945312 4.164062 366.695312 4.164062 C 364.445312 4.164062 362.613281 6 362.613281 8.25 C 362.613281 9.363281 361.707031 10.273438 360.589844 10.273438 C 359.476562 10.273438 358.566406 9.363281 358.566406 8.25 C 358.566406 3.769531 362.214844 0.121094 366.695312 0.121094 C 371.179688 0.121094 374.824219 3.769531 374.824219 8.25 C 374.824219 11.699219 372.628906 14.773438 369.363281 15.917969 C 368.980469 16.054688 368.71875 16.417969 368.71875 16.828125 L 368.71875 18.445312 C 368.71875 18.808594 368.921875 19.144531 369.246094 19.304688 L 369.390625 19.375 C 369.488281 19.425781 369.589844 19.472656 369.683594 19.53125 L 410.894531 44.890625 C 413.207031 46.3125 414.257812 49.019531 413.523438 51.628906 C 412.78125 54.238281 410.464844 55.992188 407.753906 55.992188 " fill-opacity="1" fill-rule="nonzero"/></g></g></g></g></g></svg>